<svg xmlns="http://www.w3.org/2000/svg" width="45" height="57" viewBox="0 0 45 57">
  <g fill="none" fill-rule="evenodd">
    <path fill="#5839B7" d="M38,30.75 C38,27.20025 37.19744,24.045 35.61588,21.372 L34.30336,22.12875 C35.74736,24.5685 36.48,27.4695 36.48,30.75 C36.48,40.26225 28.63908,48 19,48 C9.36168,48 1.52,40.26225 1.52,30.75 C1.52,21.2385 9.36168,13.5 19,13.5 C22.32424,13.5 25.26392,14.22225 27.73696,15.648 L28.50304,14.352 C25.9882,12.903 23.047,12.126 19.76,12.021 L19.76,9 L18.24,9 L18.24,12.01875 C8.11452,12.41475 0,20.6625 0,30.75 C0,36.4695 2.61212,41.59575 6.71612,45.03825 L1.52,54.561 L1.52,57 L3.04,57 L3.04,54.939 L7.93136,45.975 C10.85812,48.05325 14.40428,49.33125 18.24,49.48125 L18.24,54.75 L19.76,54.75 L19.76,49.48125 C23.59648,49.33125 27.14188,48.054 30.06864,45.97575 L34.96,54.939 L34.96,57 L36.48,57 L36.48,54.561 L31.28388,45.03825 C35.38788,41.59575 38,36.4695 38,30.75 Z"/>
    <path fill="#5839B7" fill-rule="nonzero" d="M38.9428583,14.2130179 C38.8273588,13.9332705 38.55286,13.7502722 38.2498613,13.7502722 L36.3103696,13.7502722 L38.0301122,12.0305382 L36.9696168,10.970048 L35.2498742,12.689782 L35.2498742,10.7503001 C35.2498742,10.4473029 35.067625,10.1735554 34.7871262,10.0573065 C34.5066274,9.9410576 34.1841288,10.004807 33.9696297,10.220055 L29.469649,14.7200131 C29.3286497,14.8602618 29.2499,15.05151 29.2499,15.2502582 L29.2499,18.6897262 L27.2054088,20.7342072 C24.9531685,18.7294758 21.9959312,17.5002373 18.7499452,17.5002373 C11.7194754,17.5002373 6,23.219684 6,30.2501186 C6,37.2805532 11.7194754,43 18.7499452,43 C25.7804149,43 31.4998903,37.2805532 31.4998903,30.2501186 C31.4998903,27.0041488 30.2706456,24.0469264 28.2659042,21.7946973 L30.3103954,19.7502163 L33.7498806,19.7502163 C33.9493798,19.7502163 34.139879,19.6714671 34.2801284,19.5304684 L38.780109,15.0305102 C38.9946081,14.8160122 39.0591078,14.4935152 38.9428583,14.2130179 Z M30.7498935,15.5607553 L33.7498806,12.5607832 L33.7498806,14.1897681 L30.7498935,17.1897402 L30.7498935,15.5607553 Z M29.9998968,30.2501186 C29.9998968,36.4533109 24.9531685,41.500014 18.7499452,41.500014 C12.5467218,41.500014 7.49999355,36.4533109 7.49999355,30.2501186 C7.49999355,24.0469264 12.5467218,19.0002233 18.7499452,19.0002233 C21.581933,19.0002233 24.1664219,20.0599634 26.1456633,21.7939473 L24.0254225,23.9141776 C22.5936786,22.7201887 20.7554365,22.0001954 18.7499452,22.0001954 C14.2012147,22.0001954 10.4999806,25.701411 10.4999806,30.2501186 C10.4999806,34.7988263 14.2012147,38.5000419 18.7499452,38.5000419 C23.2986756,38.5000419 26.9999097,34.7988263 26.9999097,30.2501186 C26.9999097,28.2453873 26.2791628,26.4064044 25.0859179,24.9746677 L27.2061588,22.8544374 C28.9401513,24.834419 29.9998968,27.418145 29.9998968,30.2501186 Z M20.9999355,30.2501186 C20.9999355,31.4906071 19.9904398,32.5000977 18.7499452,32.5000977 C17.5094505,32.5000977 16.4999548,31.4906071 16.4999548,30.2501186 C16.4999548,29.0096302 17.5094505,28.0001396 18.7499452,28.0001396 C19.0964437,28.0001396 19.4204423,28.0848888 19.713691,28.2258875 L18.2196974,29.7198736 L19.2801929,30.7803637 L20.7741865,29.2863776 C20.9151858,29.5796249 20.9999355,29.9036219 20.9999355,30.2501186 Z M20.8146863,27.1248977 C20.2221888,26.7319014 19.5134419,26.5001535 18.7499452,26.5001535 C16.6822041,26.5001535 14.9999613,28.1823879 14.9999613,30.2501186 C14.9999613,32.3178494 16.6822041,34.0000837 18.7499452,34.0000837 C20.8176863,34.0000837 22.499929,32.3178494 22.499929,30.2501186 C22.499929,29.4866257 22.26818,28.7786323 21.8751817,28.1853878 L24.0186725,26.0419078 C24.9434185,27.196897 25.4999161,28.6586334 25.4999161,30.2501186 C25.4999161,33.972334 22.4721791,37.0000558 18.7499452,37.0000558 C15.0284612,37.0000558 11.9999742,33.972334 11.9999742,30.2501186 C11.9999742,26.5286533 15.0284612,23.5001814 18.7499452,23.5001814 C20.3414383,23.5001814 21.802432,24.0566763 22.9581771,24.9814177 L20.8146863,27.1248977 Z M33.439382,18.2502303 L31.810389,18.2502303 L34.8103761,15.2502582 L36.4393691,15.2502582 L33.439382,18.2502303 Z"/>
    <rect width="2" height="2" x="18" y="15" fill="#5839B7"/>
    <rect width="2" height="2" x="18" y="45" fill="#5839B7"/>
    <rect width="2" height="2" x="3" y="30" fill="#5839B7"/>
    <rect width="2" height="2" x="33" y="30" fill="#5839B7"/>
    <circle cx="27" cy="18" r="18" fill="#5639BB" fill-opacity=".15"/>
  </g>
</svg>
