<svg xmlns="http://www.w3.org/2000/svg" width="65" height="65" viewBox="0 0 65 65">
  <g fill="none" fill-rule="evenodd">
    <rect width="2" height="7" x="6" y="49" fill="#5839B7"/>
    <rect width="2" height="5" x="9" y="51" fill="#5839B7"/>
    <rect width="2" height="11" x="12" y="45" fill="#5839B7"/>
    <rect width="2" height="10" x="15" y="46" fill="#5839B7"/>
    <rect width="2" height="13" x="18" y="43" fill="#5839B7"/>
    <rect width="2" height="17" x="21" y="39" fill="#5839B7"/>
    <rect width="2" height="15" x="24" y="41" fill="#5839B7"/>
    <rect width="2" height="11" x="27" y="45" fill="#5839B7"/>
    <rect width="2" height="19" x="30" y="37" fill="#5839B7"/>
    <rect width="2" height="17" x="33" y="39" fill="#5839B7"/>
    <rect width="2" height="23" x="36" y="33" fill="#5839B7"/>
    <rect width="2" height="20" x="39" y="36" fill="#5839B7"/>
    <rect width="2" height="18" x="42" y="38" fill="#5839B7"/>
    <rect width="2" height="26" x="45" y="30" fill="#5839B7"/>
    <polygon fill="#5839B7" points="48 60.5 4.5 60.5 4.5 17 3 17 3 60.5 0 60.5 0 62 3 62 3 65 4.5 65 4.5 62 48 62"/>
    <rect width="2" height="2" x="6" y="57" fill="#5839B7"/>
    <rect width="2" height="2" x="9" y="57" fill="#5839B7"/>
    <rect width="2" height="2" x="12" y="57" fill="#5839B7"/>
    <rect width="2" height="2" x="15" y="57" fill="#5839B7"/>
    <rect width="2" height="2" x="18" y="57" fill="#5839B7"/>
    <rect width="2" height="2" x="21" y="57" fill="#5839B7"/>
    <rect width="2" height="2" x="24" y="57" fill="#5839B7"/>
    <rect width="2" height="2" x="27" y="57" fill="#5839B7"/>
    <rect width="2" height="2" x="30" y="57" fill="#5839B7"/>
    <rect width="2" height="2" x="33" y="57" fill="#5839B7"/>
    <rect width="2" height="2" x="36" y="57" fill="#5839B7"/>
    <rect width="2" height="2" x="39" y="57" fill="#5839B7"/>
    <rect width="2" height="2" x="42" y="57" fill="#5839B7"/>
    <rect width="2" height="2" x="45" y="57" fill="#5839B7"/>
    <polygon fill="#5839B7" points="15.045 37.075 22.49 37.075 29.933 29.651 37.376 29.651 44.511 22.534 44.511 25.197 46 25.197 46 20 40.79 20 40.79 21.485 43.458 21.485 36.76 28.167 29.317 28.167 21.873 35.591 14.432 35.591 6 43.947 7.049 45"/>
    <rect width="2" height="2" x="6" y="20" fill="#5839B7"/>
    <rect width="12" height="2" x="10" y="20" fill="#5839B7"/>
    <rect width="2" height="2" x="6" y="23" fill="#5839B7"/>
    <rect width="12" height="2" x="10" y="23" fill="#5839B7"/>
    <rect width="2" height="2" x="6" y="26" fill="#5839B7"/>
    <rect width="12" height="2" x="10" y="26" fill="#5839B7"/>
    <rect width="2" height="2" x="6" y="29" fill="#5839B7"/>
    <rect width="12" height="2" x="10" y="29" fill="#5839B7"/>
    <circle cx="41" cy="24" r="24" fill="#5639BB" fill-opacity=".15"/>
  </g>
</svg>
