<svg xmlns="http://www.w3.org/2000/svg" width="81" height="100" viewBox="0 0 81 100">
  <g fill="none" fill-rule="evenodd">
    <circle cx="52.679" cy="72.321" r="27.679" fill="#EAE8EE"/>
    <rect width="46.679" height="64.536" x="3" y="3" fill="#FFF" stroke="#272A7F" stroke-width="6"/>
    <polyline stroke="#272A7F" stroke-width="6" points="13.393 80.357 60.714 80.357 60.714 25.893"/>
    <path fill="#272A7F" d="M30.6071429,17.0142857 L28.3571429,18.45 C27.7785714,17.3357143 27.1571429,16.8642857 26.2785714,16.8642857 C25.4642857,16.8642857 24.8428571,17.4428571 24.8428571,18.2357143 C24.8428571,20.85 31.25,20.5071429 31.25,24.9642857 C31.25,27.45 29.8785714,29.0571429 27.7357143,29.5071429 L27.7357143,31.3928571 L25.1214286,31.3928571 L25.1214286,29.4642857 C23.0642857,28.9714286 21.6714286,27.3 21.2857143,25.4357143 L23.5357143,24.0214286 C23.9857143,25.6285714 24.8857143,27.0642857 26.5142857,27.0642857 C27.6714286,27.0642857 28.4642857,26.4857143 28.4642857,25.1142857 C28.4642857,22.6285714 22.1857143,23.1214286 22.1857143,18.3642857 C22.1857143,16.4785714 23.3642857,14.9357143 25.1214286,14.4428571 L25.1214286,12.5357143 L27.7357143,12.5357143 L27.7357143,14.4857143 C29.0214286,14.85 30.0071429,15.7285714 30.6071429,17.0142857 Z"/>
    <path stroke="#272A7F" stroke-width="6" d="M13.3928571 42.8571429L39.2857143 42.8571429M13.3928571 52.6785714L39.2857143 52.6785714"/>
  </g>
</svg>
