<svg xmlns="http://www.w3.org/2000/svg" width="61" height="53" viewBox="0 0 61 53">
  <g fill="none" fill-rule="evenodd">
    <g fill="#5739B8" transform="translate(20 19)">
      <path fill-rule="nonzero" d="M7.9824,15.9870145 C3.66514286,15.9870145 0.152457143,12.4236522 0.152457143,8.0435942 C0.152457143,3.66353623 3.66514286,0.099942029 7.9824,0.099942029 C12.3001143,0.099942029 15.8123429,3.66353623 15.8123429,8.0435942 C15.8123429,12.4236522 12.3001143,15.9870145 7.9824,15.9870145 Z M7.9824,1.54434783 C4.45005714,1.54434783 1.57622857,4.46005797 1.57622857,8.04382609 C1.57622857,11.6275942 4.45005714,14.5428406 7.9824,14.5428406 C11.5149714,14.5428406 14.3885714,11.6273623 14.3885714,8.04382609 C14.3885714,4.46028986 11.5149714,1.54434783 7.9824,1.54434783 Z"/>
      <g transform="translate(5.029 3.478)">
        <path d="M3.46857143,8.4173913 L2.43977143,8.4173913 C1.83817143,8.4173913 1.27268571,8.17971014 0.8464,7.74910145 C0.420114286,7.31524638 0.186285714,6.74110145 0.186285714,6.13008696 L1.60982857,6.13008696 C1.60982857,6.35617391 1.69622857,6.56834783 1.85302857,6.72788406 C2.00914286,6.88556522 2.21782857,6.97321739 2.43954286,6.97321739 L3.46834286,6.97321739 C3.6896,6.97321739 3.89897143,6.88486957 4.05851429,6.72510145 C4.21165714,6.56765217 4.29897143,6.35524638 4.29897143,6.13031884 C4.29897143,5.90585507 4.21234286,5.69391304 4.05554286,5.53437681 C3.89874286,5.376 3.68982857,5.28788406 3.46857143,5.28788406 L2.43977143,5.28788406 C1.83657143,5.28788406 1.2704,5.04973913 0.845028571,4.61704348 C0.420571429,4.1875942 0.186285714,3.61321739 0.186285714,3.00104348 C0.186285714,2.38863768 0.420342857,1.8137971 0.845942857,1.38272464 C1.27268571,0.95142029 1.83862857,0.714202899 2.43977143,0.714202899 L3.46857143,0.714202899 C4.0672,0.714202899 4.63268571,0.950956522 5.06034286,1.38017391 C5.48891429,1.81704348 5.72251429,2.39142029 5.72251429,3.00127536 L4.29897143,3.00127536 C4.29897143,2.77565217 4.21211429,2.56324638 4.05485714,2.40301449 C3.89897143,2.24672464 3.6896,2.1586087 3.46857143,2.1586087 L2.43977143,2.1586087 C2.21782857,2.1586087 2.00914286,2.24602899 1.85165714,2.40510145 C1.69577143,2.56324638 1.60982857,2.77495652 1.60982857,3.00127536 C1.60982857,3.22689855 1.69577143,3.43814493 1.85165714,3.59605797 C2.00914286,3.75628986 2.21782857,3.84371014 2.43977143,3.84371014 L3.46857143,3.84371014 C4.06948571,3.84371014 4.6352,4.08162319 5.06217143,4.51315942 C5.48845714,4.94701449 5.72274286,5.52046377 5.72274286,6.13055072 C5.72274286,6.73901449 5.48937143,7.31269565 5.06537143,7.74655072 C4.63314286,8.1804058 4.06765714,8.4173913 3.46857143,8.4173913 Z"/>
        <rect width="1.424" height="1.252" x="2.243" y=".184"/>
        <rect width="1.424" height="1.252" x="2.243" y="7.695"/>
      </g>
    </g>
    <g fill="#5739B8" transform="translate(0 31)">
      <path fill-rule="nonzero" d="M10.82833,20.3907579 L0,20.3907579 L0,0.207726316 L10.828095,0.207726316 L10.828095,20.3907579 L10.82833,20.3907579 Z M1.463815,18.9484842 L9.36475,18.9484842 L9.36475,1.65023158 L1.463815,1.65023158 L1.463815,18.9484842 Z"/>
      <rect width="1.464" height="1.443" x="6.437" y="15.319"/>
      <g transform="translate(9.87 3.705)">
        <path d="M17.46896,18.2268842 C16.77665,18.2268842 16.096795,18.1055368 15.439735,17.8637684 L3.2712,13.0561895 L0.226305,13.0561895 L0.226305,11.6136842 L3.55367,11.6136842 L15.968015,16.5182947 C16.587475,16.7461684 17.252525,16.8295368 17.92815,16.7607579 C18.603775,16.6910526 19.236865,16.4747579 19.81003,16.1172 L35.117695,6.23248421 C35.40792,6.02058947 35.597095,5.71073684 35.65091,5.35781053 C35.705195,4.99955789 35.613545,4.64338947 35.39194,4.35414737 L35.367265,4.32218947 C35.163285,4.05633684 34.866715,3.87547368 34.533485,3.81456842 C34.199785,3.75389474 33.85786,3.81781053 33.56928,3.99381053 L25.41478,8.99614737 L24.64116,7.77178947 L32.7966,2.76898947 C33.395615,2.40193684 34.10743,2.26993684 34.79974,2.39661053 C35.49346,2.52305263 36.10963,2.89821053 36.53545,3.45284211 L36.560125,3.48549474 C37.020255,4.08621053 37.21131,4.82703158 37.09804,5.57178947 C36.985005,6.31608421 36.582215,6.96936842 35.962755,7.41029474 L35.935495,7.42905263 L20.602685,17.3297474 C19.82789,17.8132842 18.982125,18.1027579 18.07949,18.1956211 C17.87504,18.2162316 17.67153,18.2268842 17.46896,18.2268842 Z"/>
        <path d="M11.66258,10.8994947 L10.198765,10.8994947 C10.198765,9.39376842 11.44215,8.16894737 12.969885,8.16894737 L23.67484,8.16894737 C24.395115,8.16894737 24.981675,7.59115789 24.981675,6.88090526 C24.981675,6.17065263 24.39535,5.59263158 23.67484,5.59263158 L12.7558,5.59263158 L8.84117,3.124 C8.041935,2.62008421 7.17549,2.23172632 6.266275,1.96957895 C5.357295,1.70743158 4.41518,1.57427368 3.466015,1.57427368 L0.226305,1.57427368 L0.226305,0.132 L3.46625,0.132 C4.554535,0.132 5.635065,0.284378947 6.677995,0.585431579 C7.72022,0.886021053 8.7138,1.33111579 9.6303,1.90890526 L13.18397,4.15035789 L23.67484,4.15035789 C25.20234,4.15035789 26.445255,5.37517895 26.445255,6.88113684 C26.445255,8.38663158 25.20234,9.61145263 23.67484,9.61145263 L12.969885,9.61145263 C12.249375,9.61145263 11.66258,10.1892421 11.66258,10.8994947 Z"/>
      </g>
    </g>
    <g fill="#5739B8" transform="translate(23 12)">
      <rect width="1.402" height="2.506" x=".001" y="4.284"/>
      <rect width="1.402" height="3.842" x="7.474" y="2.883"/>
      <rect width="1.402" height="5.512" x="3.782" y=".071"/>
    </g>
    <circle cx="37" cy="24" r="24" fill="#5639BB" fill-opacity=".15"/>
  </g>
</svg>
