<svg xmlns="http://www.w3.org/2000/svg" width="40" height="29" viewBox="0 0 40 29">
  <path fill="#272A7F" fill-rule="evenodd" d="M39.6980548,4.50701232 C40.1006484,4.91650209 40.1006484,5.58218545 39.6980548,5.99377516 C39.4957257,6.19747006 39.2314591,6.30036749 38.9671925,6.30036749 C38.7029259,6.30036749 38.4386593,6.19747006 38.2363302,5.99377516 L36.9026098,4.63510912 L35.5688893,5.9958751 C35.3665602,6.19747006 35.1022936,6.30036749 34.838027,6.30036749 C34.5737604,6.30036749 34.3094939,6.19747006 34.1071647,5.99377516 C33.7045711,5.58428539 33.7045711,4.91860203 34.1071647,4.50701232 L35.4429498,3.15044624 L34.1092293,1.79388015 C33.7066357,1.38439039 33.7066357,0.718707032 34.1092293,0.307117322 C34.511823,-0.102372441 35.1662957,-0.102372441 35.5688893,0.307117322 L36.9026098,1.66578336 L38.2363302,0.307117322 C38.6389238,-0.102372441 39.2933966,-0.102372441 39.6959902,0.307117322 C40.0985838,0.716607085 40.0985838,1.38229044 39.6959902,1.79388015 L38.3622698,3.15044624 L39.6980548,4.50701232 Z M6.69805478,26.5070123 C7.10064841,26.9165021 7.10064841,27.5821854 6.69805478,27.9937752 C6.49572567,28.1974701 6.23145908,28.3003675 5.96719249,28.3003675 C5.7029259,28.3003675 5.43865931,28.1974701 5.2363302,27.9937752 L3.90260976,26.6351091 L2.56888932,27.9958751 C2.36656021,28.1974701 2.10229362,28.3003675 1.83802703,28.3003675 C1.57376044,28.3003675 1.30949385,28.1974701 1.10716475,27.9937752 C0.704571115,27.5842854 0.704571115,26.918602 1.10716475,26.5070123 L2.44294977,25.1504462 L1.10922933,23.7938802 C0.706635698,23.3843904 0.706635698,22.718707 1.10922933,22.3071173 C1.51182296,21.8976276 2.16629569,21.8976276 2.56888932,22.3071173 L3.90260976,23.6657834 L5.2363302,22.3071173 C5.63892384,21.8976276 6.29339656,21.8976276 6.69599019,22.3071173 C7.09858383,22.7166071 7.09858383,23.3822904 6.69599019,23.7938802 L5.36226975,25.1504462 L6.69805478,26.5070123 Z M37.9671925,11.5002625 C37.9671925,12.079848 37.504726,12.5502362 36.9349011,12.5502362 C36.3650763,12.5502362 35.9026098,12.079848 35.9026098,11.5002625 L35.9026098,9.40031499 C35.9026098,8.81862953 36.3650763,8.35034124 36.9349011,8.35034124 C37.504726,8.35034124 37.9671925,8.81862953 37.9671925,9.40031499 L37.9671925,11.5002625 Z M36.633472,17.4935127 L35.6011807,18.5434864 C35.3988516,18.7471813 35.134585,18.8500787 34.8703184,18.8500787 C34.6060518,18.8500787 34.3417852,18.7471813 34.1394561,18.5434864 C33.7368625,18.1339967 33.7368625,17.4683133 34.1394561,17.0567236 L35.1717475,16.0067498 C35.5743411,15.5972601 36.2288138,15.5972601 36.6314075,16.0067498 C37.0360657,16.4183395 37.0360657,17.0840229 36.633472,17.4935127 Z M29.4074325,16.4435389 C29.2051034,16.6472338 28.9408368,16.7501312 28.6765702,16.7501312 C28.4123036,16.7501312 28.148037,16.6472338 27.9457079,16.4435389 L26.9134166,15.3935652 C26.5108229,14.9840754 26.5108229,14.318392 26.9134166,13.9068023 C27.3160102,13.4952126 27.9704829,13.4973126 28.3730766,13.9068023 L29.4053679,14.9567761 C29.8100261,15.3683658 29.8100261,16.0340491 29.4074325,16.4435389 Z M23.5151134,11.5002625 L21.4505307,11.5002625 C20.8807058,11.5002625 20.4182393,11.0298743 20.4182393,10.4502887 C20.4182393,9.86860328 20.8807058,9.40031499 21.4505307,9.40031499 L23.5151134,9.40031499 C24.0849382,9.40031499 24.5474048,9.86860328 24.5474048,10.4502887 C24.5474048,11.0298743 24.0849382,11.5002625 23.5151134,11.5002625 Z M15.9876448,14.3435914 L14.9553534,15.3935652 C14.7530243,15.5972601 14.4887577,15.7001575 14.2244911,15.7001575 C13.9602245,15.7001575 13.6959579,15.5972601 13.4956934,15.3935652 C13.0930998,14.9840754 13.0930998,14.318392 13.4956934,13.9068023 L14.5279848,12.8568286 C14.9305784,12.4473388 15.5850511,12.4473388 15.9876448,12.8568286 C16.3902384,13.2663183 16.3902384,13.9341016 15.9876448,14.3435914 Z M9.79183199,20.6434339 L8.75954063,21.6934077 C8.55927611,21.8971026 8.29500952,22 8.03074293,22 C7.76647634,22 7.50220975,21.8971026 7.30194522,21.6934077 C6.89935159,21.2839179 6.89935159,20.6182345 7.30194522,20.2066448 L8.33423659,19.1566711 C8.73683022,18.7471813 9.39130295,18.7471813 9.79389658,19.1566711 C10.1964902,19.5682608 10.1964902,20.2339442 9.79183199,20.6434339 Z"/>
</svg>
