<svg xmlns="http://www.w3.org/2000/svg" width="41" height="41" viewBox="0 0 41 41">
  <g fill="none" fill-rule="evenodd" stroke="#272A7F" stroke-linecap="round" stroke-linejoin="round" stroke-width="2" transform="translate(1 1)">
    <path d="M7.67444913 27C-5.57148666 20.0261103-.616847877 0 14.4825973 0 26.3187737 0 33.0586526 13.227622 26.3307208 22.6099069M15 21L15 23M15 7L15 9"/>
    <path d="M12,18.0008826 C12,19.6566637 13.3433363,21 14.9991174,21 C16.6548985,21 18,19.6548985 18,18.0008826 C18,16.3415711 16.6548985,14.9982348 14.9991174,14.9982348 C13.3433363,14.9982348 12,13.6531333 12,11.9991174 C12,10.3398058 13.3433363,9 14.9991174,9 C16.6548985,9 18,10.3398058 18,11.9991174"/>
    <polyline points="3 39 18.07 25.182 26.442 32.091 39 20"/>
    <polyline points="32 20 39 20 39 27"/>
  </g>
</svg>
