<svg xmlns="http://www.w3.org/2000/svg" width="42" height="42" viewBox="0 0 42 42">
  <g fill="none" fill-rule="evenodd" stroke="#272A7F" stroke-linecap="round" stroke-linejoin="round" stroke-width="2" transform="translate(1 1)">
    <polygon points="0 8.752 18.515 17.674 26.977 14.175 9.39 4.651"/>
    <path d="M0 30.632093C0 30.9714729.20124031 31.2784496.513333333 31.4131783L18.7596899 39.7203101 18.7596899 17.536124 0 8.54852713 0 30.632093zM19.5348837 17.536124L19.5348837 39.7203101 38.5797674 31.4131783C38.8776744 31.280155 39.0697674 30.9714729 39.0697674 30.632093L39.0697674 8.54852713 19.5348837 17.536124zM39.5505426 8.23379845L20.8044961.0835658915C20.587907-.0119379845 20.3423256-.0119379845 20.1257364.0835658915L12.6167442 3.34604651 29.8875969 12.6610853 39.5505426 8.23379845z"/>
  </g>
</svg>
