<svg xmlns="http://www.w3.org/2000/svg" width="42" height="46" viewBox="0 0 42 46">
  <path fill="none" stroke="#272A7F" stroke-width="2" d="M8.24710425 3.33590734L1.2046332 3.33590734C.556725869 3.33590734.0308880309 3.86174517.0308880309 4.50965251L.0308880309 25.6370656C.0308880309 26.284973.556725869 26.8108108 1.2046332 26.8108108L8.24710425 26.8108108C8.89501158 26.8108108 9.42084942 26.284973 9.42084942 25.6370656L9.42084942 4.512C9.42084942 4.512 9.42084942 4.50965251 9.42084942 4.50965251 9.42084942 3.86174517 8.89501158 3.33590734 8.24710425 3.33590734zM38.571861 21.4726178C38.21739 20.7589807 37.8582239 20.5007568 37.7032896 20.5007568 37.0553822 20.5007568 36.5295444 19.9749189 36.5295444 19.3270116 36.5295444 18.6791042 37.0553822 18.1532664 37.7032896 18.1532664 37.8018842 18.1532664 37.8723089 18.1532664 37.9779459 17.9701622 38.1328803 17.6955058 38.2220849 17.2189653 38.2220849 16.6602625 38.2220849 15.6156293 37.9263012 14.3738069 37.4521081 13.4160309 36.987305 12.4793822 36.5154595 12.1389961 36.3088803 12.1389961 35.660973 12.1389961 35.1351351 11.6131583 35.1351351 10.965251 35.1351351 10.5497452 35.3511042 10.1835367 35.6774054 9.97461004 35.7501776 9.2304556 35.402749 7.23978378 34.5013127 5.94162162 34.1609266 5.45099614 33.8017606 5.1692973 33.5200618 5.1692973 32.8721544 5.1692973 32.3463166 4.64345946 32.3463166 3.99555212 32.3463166 1.92976062 30.064556.988416988 27.9447722.988416988 22.045529.988416988 20.3928958 1.87107336 18.4796911 2.89457915 16.6909035 3.85000772 14.6814517 4.9251583 9.60383012 5.5566332L9.60383012 24.7755367C14.5359073 26.3929575 19.35061 29.1817761 23.247444 32.6936216 26.9869961 36.0646178 29.442471 39.7079228 30.2758301 43.0836139 30.9143475 42.8793822 31.635027 42.447444 32.0974826 41.6328649 32.8815444 40.2478456 33.468417 36.7125251 28.5926795 28.587861 28.3743629 28.2263475 28.369668 27.7732819 28.5785946 27.4047259 28.7875212 27.0361699 29.1772046 26.8084633 29.5997529 26.8084633L37.7760618 26.8084633C38.2432124 26.8084633 38.5436911 26.644139 38.7854826 26.2591506 39.060139 25.8201699 39.2103784 25.1393977 39.2103784 24.3459459 39.2103784 23.35061 38.9709344 22.2754595 38.571861 21.4702703L38.571861 21.4726178z" transform="translate(1 1)"/>
</svg>
