<svg xmlns="http://www.w3.org/2000/svg" width="30" height="32" viewBox="0 0 30 32">
  <path fill="none" stroke="#272A7F" stroke-linecap="round" stroke-linejoin="round" stroke-width="2" d="M14 16.1212121C9.55494215 16.1212121 5.93939394 12.5056639 5.93939394 8.06060606 5.93939394 3.61554821 9.55494215 0 14 0 18.4450579 0 22.0606061 3.61554821 22.0606061 8.06060606 22.0606061 12.5056639 18.4450579 16.1212121 14 16.1212121zM25.7894737 29.6969697L2.21052632 29.6969697C.991789474 29.6969697 0 28.6976667 0 27.469697 0 27.3687273.0206315789 24.9677273 1.80526316 22.569697 2.84421053 21.1739394 4.26631579 20.0647576 6.03326316 19.2748182 8.19073684 18.3081818 10.8713684 17.8181818 14 17.8181818 17.1286316 17.8181818 19.8092632 18.3081818 21.9667368 19.2748182 23.7336842 20.0662424 25.1557895 21.1739394 26.1947368 22.569697 27.9793684 24.9677273 28 27.3687273 28 27.469697 28 28.6976667 27.0082105 29.6969697 25.7894737 29.6969697z" transform="translate(1 1)"/>
</svg>
