<?xml version="1.0" encoding="utf-8"?>
<!-- Generator: Adobe Illustrator 23.0.1, SVG Export Plug-In . SVG Version: 6.00 Build 0)  -->
<svg version="1.1" id="Calque_1" xmlns="http://www.w3.org/2000/svg" xmlns:xlink="http://www.w3.org/1999/xlink" x="0px" y="0px"
	 viewBox="0 0 45 51" style="enable-background:new 0 0 45 51;" xml:space="preserve">
<style type="text/css">
	.st0{fill-rule:evenodd;clip-rule:evenodd;fill:#5639BB;fill-opacity:0.15;}
	.st1{fill:#5639BB;}
</style>
<g>
	<circle class="st0" cx="27" cy="18" r="18"/>
</g>
<g>
	<path class="st1" d="M37.2,13.8H0.1v32.3h2.6C3.5,48.9,6,51,9,51c1.1,0,2.3-0.3,3.2-0.9l6.4-3.7l6.4,3.7c1,0.6,2.1,0.9,3.2,0.9
		c3,0,5.5-2,6.3-4.8h2.6V13.8z M36,15v3.6H1.3V15H36z M33.6,44.5c0,2.9-2.4,5.3-5.3,5.3c-0.9,0-1.8-0.2-2.6-0.7l-5.8-3.3l1.2-0.7
		l5.2,3c0.6,0.4,1.3,0.5,2.1,0.5c2.3,0,4.1-1.9,4.1-4.1v-0.1c0-2.3-1.9-4.1-4.1-4.1c-0.7,0-1.4,0.2-2.1,0.5l-14.6,8.3
		c-0.8,0.5-1.7,0.7-2.6,0.7c-2.9,0-5.3-2.4-5.3-5.3v-0.1C3.6,41.4,6,39,9,39c0.9,0,1.8,0.2,2.6,0.7l5.8,3.3l-1.2,0.7l-5.2-3
		c-0.6-0.4-1.3-0.5-2.1-0.5c-2.3,0-4.1,1.9-4.1,4.1v0.1c0,2.3,1.9,4.1,4.1,4.1c0.7,0,1.4-0.2,2.1-0.5l14.6-8.3
		c0.8-0.5,1.7-0.7,2.6-0.7c2.9,0,5.3,2.4,5.3,5.3V44.5z M22.2,44.4l4.6-2.6c0.4-0.3,0.9-0.4,1.5-0.4c1.6,0,2.9,1.3,2.9,2.9v0.1
		c0,1.6-1.3,2.9-2.9,2.9c-0.5,0-1-0.1-1.5-0.4L22.2,44.4z M15,44.4L10.4,47C10,47.3,9.5,47.4,9,47.4c-1.6,0-2.9-1.3-2.9-2.9v-0.1
		c0-1.6,1.3-2.9,2.9-2.9c0.5,0,1,0.1,1.5,0.4L15,44.4z M34.8,45c0-0.2,0-0.4,0-0.5v-0.1c0-3.6-2.9-6.5-6.5-6.5
		c-1.1,0-2.3,0.3-3.2,0.9l-6.4,3.7l-6.4-3.7c-1-0.6-2.1-0.9-3.2-0.9c-3.6,0-6.5,2.9-6.5,6.5v0.1c0,0.2,0,0.4,0,0.5H1.3V19.8H36V45
		H34.8z"/>
	<path class="st1" d="M2.5,36.6H18V21H2.5V36.6z M3.6,22.2h13.2v13.2H3.6V22.2z"/>
	<rect x="4.8" y="23.4" class="st1" width="10.8" height="1.2"/>
	<rect x="4.8" y="25.8" class="st1" width="8.4" height="1.2"/>
	<rect x="14.4" y="25.8" class="st1" width="1.2" height="1.2"/>
	<rect x="7.2" y="28.2" class="st1" width="8.4" height="1.2"/>
	<rect x="4.8" y="28.2" class="st1" width="1.2" height="1.2"/>
	<rect x="4.8" y="30.6" class="st1" width="10.8" height="1.2"/>
	<rect x="4.8" y="33" class="st1" width="8.4" height="1.2"/>
	<path class="st1" d="M19.2,36.6h15.6V21H19.2V36.6z M20.4,22.2h13.2v13.2H20.4V22.2z"/>
	<rect x="21.6" y="23.4" class="st1" width="10.8" height="1.2"/>
	<rect x="21.6" y="25.8" class="st1" width="1.2" height="1.2"/>
	<rect x="24" y="25.8" class="st1" width="8.4" height="1.2"/>
	<rect x="21.6" y="28.2" class="st1" width="10.8" height="1.2"/>
	<rect x="21.6" y="30.6" class="st1" width="10.8" height="1.2"/>
	<rect x="21.6" y="33" class="st1" width="8.4" height="1.2"/>
	<rect x="2.5" y="16.2" class="st1" width="1.2" height="1.2"/>
	<rect x="4.8" y="16.2" class="st1" width="1.2" height="1.2"/>
	<rect x="7.2" y="16.2" class="st1" width="1.2" height="1.2"/>
	<rect x="31.2" y="33" class="st1" width="1.2" height="1.2"/>
	<rect x="14.4" y="33" class="st1" width="1.2" height="1.2"/>
</g>
</svg>
