<?xml version="1.0" encoding="utf-8"?>
<!-- Generator: Adobe Illustrator 23.0.1, SVG Export Plug-In . SVG Version: 6.00 Build 0)  -->
<svg version="1.1" id="Calque_1" xmlns="http://www.w3.org/2000/svg" xmlns:xlink="http://www.w3.org/1999/xlink" x="0px" y="0px"
	 viewBox="0 0 45 51" style="enable-background:new 0 0 45 51;" xml:space="preserve">
<style type="text/css">
	.st0{fill-rule:evenodd;clip-rule:evenodd;fill:#5639BB;fill-opacity:0.15;}
	.st1{fill:none;stroke:#5639BB;stroke-width:1.36;stroke-linecap:round;stroke-linejoin:round;stroke-miterlimit:10;}
</style>
<g>
	<circle class="st0" cx="27" cy="18" r="18"/>
</g>
<g id="_x37_">
	<path class="st1" d="M15.5,47c-0.4,0.1-0.8,0.2-1.2,0.2l-2.9,0.7c-5,1.2-9.5-3.3-8.4-8.4l0.7-2.9c0.1-0.4,0.2-0.8,0.2-1.2
		C5.8,40.9,10.1,45.3,15.5,47z"/>
	<path class="st1" d="M3.1,20.2c-1.2-5,3.3-9.5,8.4-8.4l2.9,0.7c0.4,0.1,0.8,0.2,1.2,0.2C10.1,14.5,5.8,18.9,4,24.3
		c-0.1-0.4-0.2-0.8-0.2-1.2L3.1,20.2z"/>
	<path class="st1" d="M21.1,41.1c-6.2,0-11.2-5-11.2-11.2c0-6.2,5-11.2,11.2-11.2c6.2,0,11.2,5,11.2,11.2
		C32.3,36.1,27.3,41.1,21.1,41.1z"/>
	<path class="st1" d="M39.2,39.6c1.2,5-3.3,9.5-8.4,8.4l-2.9-0.7c-0.4-0.1-0.8-0.2-1.2-0.2c5.5-1.8,9.8-6.1,11.5-11.5
		c0.1,0.4,0.2,0.8,0.2,1.2L39.2,39.6z"/>
	<path class="st1" d="M26.7,12.8c0.4-0.1,0.8-0.2,1.2-0.2l2.9-0.7c5-1.2,9.5,3.3,8.4,8.4l-0.7,2.9c-0.1,0.4-0.2,0.8-0.2,1.2
		C36.5,18.9,32.2,14.5,26.7,12.8z"/>
	<path class="st1" d="M3.1,27.1L3.1,27.1c-1.2,0-2.2,1-2.2,2.2v1c0,1.2,1,2.2,2.2,2.2h0"/>
	<path class="st1" d="M39.1,32.7L39.1,32.7c1.2,0,2.2-1,2.2-2.2v-1c0-1.2-1-2.2-2.2-2.2h0"/>
	<path class="st1" d="M23.9,11.9L23.9,11.9c0-1.2-1-2.2-2.2-2.2h-1c-1.2,0-2.2,1-2.2,2.2v0"/>
	<path class="st1" d="M18.4,47.9L18.4,47.9c0,1.2,1,2.2,2.2,2.2h1c1.2,0,2.2-1,2.2-2.2v0"/>
	<path class="st1" d="M4,35.5c-0.6-1.8-0.9-3.6-0.9-5.6s0.3-3.8,0.9-5.6"/>
	<path class="st1" d="M15.5,47c1.8,0.6,3.6,0.9,5.6,0.9s3.8-0.3,5.6-0.9"/>
	<path class="st1" d="M15.5,12.8c1.8-0.6,3.6-0.9,5.6-0.9s3.8,0.3,5.6,0.9"/>
	<path class="st1" d="M32.3,29.9c0,6.2-5,11.2-11.2,11.2c-6.2,0-11.2-5-11.2-11.2c0-6.2,5-11.2,11.2-11.2
		C27.3,18.7,32.3,23.7,32.3,29.9z"/>
	<path class="st1" d="M38.2,35.5c0.6-1.8,0.9-3.6,0.9-5.6s-0.3-3.8-0.9-5.6"/>
	<path class="st1" d="M32.3,29.9c0,6.2-5,11.2-11.2,11.2c-6.2,0-11.2-5-11.2-11.2c0-6.2,5-11.2,11.2-11.2
		C27.3,18.7,32.3,23.7,32.3,29.9z"/>
	<line class="st1" x1="10.4" y1="15.6" x2="15" y2="20.2"/>
	<line class="st1" x1="11.5" y1="23.7" x2="6.9" y2="19.2"/>
	<line class="st1" x1="30.8" y1="36" x2="35.4" y2="40.6"/>
	<line class="st1" x1="31.9" y1="44.1" x2="27.3" y2="39.5"/>
	<line class="st1" x1="35.4" y1="19.1" x2="30.8" y2="23.7"/>
	<line class="st1" x1="27.3" y1="20.2" x2="31.8" y2="15.6"/>
	<line class="st1" x1="15" y1="39.5" x2="10.4" y2="44.1"/>
	<line class="st1" x1="6.9" y1="40.6" x2="11.5" y2="36"/>
</g>
</svg>
