<?xml version="1.0" encoding="utf-8"?>
<!-- Generator: Adobe Illustrator 23.0.1, SVG Export Plug-In . SVG Version: 6.00 Build 0)  -->
<svg version="1.1" id="Calque_1" xmlns="http://www.w3.org/2000/svg" xmlns:xlink="http://www.w3.org/1999/xlink" x="0px" y="0px"
	 viewBox="0 0 45 51" style="enable-background:new 0 0 45 51;" xml:space="preserve">
<style type="text/css">
	.st0{fill-rule:evenodd;clip-rule:evenodd;fill:#5639BB;fill-opacity:0.15;}
	.st1{fill:none;stroke:#5639BB;stroke-width:1.5;stroke-linejoin:round;stroke-miterlimit:10;}
	.st2{fill:none;stroke:#5639BB;stroke-width:1.5;stroke-linecap:round;stroke-linejoin:round;stroke-miterlimit:10;}
</style>
<g>
	<circle class="st0" cx="27" cy="18" r="18"/>
</g>
<g id="_x36_">
	<polyline class="st1" points="41.9,48.3 1.2,48.3 1.2,17.5 	"/>
	<polyline class="st2" points="37.7,22.8 37.7,20 34.9,20 	"/>
	<polyline class="st1" points="3.8,39.4 17.9,25.3 25.2,32.6 36.9,20.8 	"/>
	<line class="st2" x1="6.8" y1="40.6" x2="6.8" y2="45.5"/>
	<line class="st2" x1="10.5" y1="37.6" x2="10.5" y2="45.5"/>
	<line class="st2" x1="14.2" y1="33.8" x2="14.2" y2="45.5"/>
	<line class="st2" x1="17.9" y1="30.6" x2="17.9" y2="45.5"/>
	<line class="st2" x1="21.5" y1="33.8" x2="21.5" y2="45.5"/>
	<line class="st2" x1="25.2" y1="36.2" x2="25.2" y2="45.5"/>
	<line class="st2" x1="28.9" y1="33.8" x2="28.9" y2="45.5"/>
	<line class="st2" x1="32.6" y1="30.6" x2="32.6" y2="45.5"/>
	<line class="st2" x1="36.3" y1="26.6" x2="36.3" y2="45.5"/>
</g>
</svg>
