<?xml version="1.0" encoding="utf-8"?>
<!-- Generator: Adobe Illustrator 23.0.1, SVG Export Plug-In . SVG Version: 6.00 Build 0)  -->
<svg version="1.1" id="Calque_1" xmlns="http://www.w3.org/2000/svg" xmlns:xlink="http://www.w3.org/1999/xlink" x="0px" y="0px"
	 viewBox="0 0 45 51" style="enable-background:new 0 0 45 51;" xml:space="preserve">
<style type="text/css">
	.st0{fill-rule:evenodd;clip-rule:evenodd;fill:#5639BB;fill-opacity:0.15;}
	.st1{fill:#5639BB;}
</style>
<g>
	<circle class="st0" cx="27" cy="18" r="18"/>
</g>
<g>
	<g>
		<path class="st1" d="M41.7,34.1c0-0.6-0.1-1.1-0.4-1.6l-3.7-6.1C37,25.5,36,25,34.9,25h-5.4v-5.6c0-0.4-0.3-0.6-0.6-0.6H6.2
			c-0.4,0-0.6,0.3-0.6,0.6v3.7H3.1c-0.4,0-0.6,0.3-0.6,0.6c0,0.4,0.3,0.6,0.6,0.6h2.5v2.9H1.9c-0.4,0-0.6,0.3-0.6,0.6
			c0,0.4,0.3,0.6,0.6,0.6h3.7v2.9h-5C0.2,31.4,0,31.7,0,32s0.3,0.6,0.6,0.6h5c0,10.4,0,2.7,0,13c0,0.4,0.3,0.6,0.6,0.6h5.1
			c0,0.1,0,0.3,0,0.3c0,2.4,2,4.3,4.4,4.3s4.4-2,4.4-4.3c0-0.1,0-0.3,0-0.3h9.3c0,0.1,0,0.3,0,0.3c0,2.4,2,4.3,4.4,4.3
			s4.4-2,4.4-4.3c0-0.1,0-0.3,0-0.3h3.2c0.4,0,0.6-0.3,0.6-0.6C41.7,34.8,41.7,45,41.7,34.1z M34.9,26.3c0.6,0,1.2,0.3,1.5,0.8
			l3.7,6.1c0.2,0.3,0.3,0.6,0.3,0.9v5H29.6V26.3H34.9z M6.9,36.9h21.4v2.2H6.9V36.9z M18.2,31.4H6.9v-2.9h13.2
			c0.4,0,0.6-0.3,0.6-0.6c0-0.4-0.3-0.6-0.6-0.6H6.9v-2.9H22c0.4,0,0.6-0.3,0.6-0.6c0-0.4-0.3-0.6-0.6-0.6H6.9v-3h21.4v15.6H6.9v-3
			h11.3c0.4,0,0.6-0.3,0.6-0.6C18.8,31.7,18.6,31.4,18.2,31.4z M15.7,49.8c-1.7,0-3.1-1.4-3.1-3c0-1.7,1.4-3,3.1-3
			c1.7,0,3.1,1.4,3.1,3S17.4,49.8,15.7,49.8z M33.6,49.8c-1.7,0-3.1-1.4-3.1-3c0-1.7,1.4-3,3.1-3c1.7,0,3.1,1.4,3.1,3
			C36.7,48.4,35.3,49.8,33.6,49.8z M40.4,45.1h-2.8c-0.6-1.6-2.2-2.7-4-2.7c-1.8,0-3.4,1.1-4,2.7h-9.8c-0.6-1.6-2.2-2.7-4-2.7
			s-3.4,1.1-4,2.7H6.8v-4.7h33.7V45.1z"/>
	</g>
	<g>
		<path class="st1" d="M32.1,34.3h5.6l0,0c0.4,0,0.6-0.3,0.6-0.6c0-0.2-0.1-0.3-0.2-0.4l-2.7-4.4c-0.3-0.4-0.8-0.8-1.3-0.8h-2
			c-0.4,0-0.6,0.3-0.6,0.6v4.9C31.5,34,31.7,34.3,32.1,34.3z M32.7,29.4h1.4c0.1,0,0.2,0.1,0.3,0.1l2.2,3.5h-3.8
			C32.7,33,32.7,29.4,32.7,29.4z"/>
	</g>
</g>
</svg>
