<?xml version="1.0" encoding="utf-8"?>
<!-- Generator: Adobe Illustrator 23.0.1, SVG Export Plug-In . SVG Version: 6.00 Build 0)  -->
<svg version="1.1" id="Calque_1" xmlns="http://www.w3.org/2000/svg" xmlns:xlink="http://www.w3.org/1999/xlink" x="0px" y="0px"
	 viewBox="0 0 45 51" style="enable-background:new 0 0 45 51;" xml:space="preserve">
<style type="text/css">
	.st0{fill-rule:evenodd;clip-rule:evenodd;fill:#5639BB;fill-opacity:0.15;}
	.st1{fill:#5639BB;}
</style>
<g>
	<circle class="st0" cx="27" cy="18" r="18"/>
</g>
<polygon class="st1" points="37.3,49.6 1.4,49.6 1.4,44.5 0.1,44.5 0.1,50.9 38.6,50.9 38.6,27.8 37.3,27.8 "/>
<rect x="3.3" y="16.3" class="st1" width="1.3" height="1.3"/>
<rect x="5.9" y="16.3" class="st1" width="1.3" height="1.3"/>
<rect x="8.4" y="16.3" class="st1" width="1.3" height="1.3"/>
<rect x="11" y="16.3" class="st1" width="24.4" height="1.3"/>
<path class="st1" d="M1.4,20.1h35.9v1.3h1.3v-1.3v-0.6v-5.8H0.1v5.8v0.6v17.9h1.3V20.1z M1.4,15h35.9v3.8H1.4V15z"/>
<rect x="3.3" y="41.3" class="st1" width="1.3" height="6.4"/>
<rect x="5.9" y="38.7" class="st1" width="1.3" height="9"/>
<rect x="8.4" y="36.1" class="st1" width="1.3" height="11.5"/>
<rect x="11" y="37.4" class="st1" width="1.3" height="10.3"/>
<rect x="13.6" y="41.3" class="st1" width="1.3" height="6.4"/>
<rect x="16.1" y="40.6" class="st1" width="1.3" height="7.1"/>
<rect x="18.7" y="36.1" class="st1" width="1.3" height="11.5"/>
<rect x="21.3" y="33.6" class="st1" width="1.3" height="14.1"/>
<rect x="23.8" y="32.3" class="st1" width="1.3" height="15.4"/>
<rect x="26.4" y="36.8" class="st1" width="1.3" height="10.9"/>
<rect x="29" y="37.4" class="st1" width="1.3" height="10.3"/>
<rect x="31.5" y="34.2" class="st1" width="1.3" height="13.5"/>
<rect x="34.1" y="31" class="st1" width="1.3" height="16.7"/>
<path class="st1" d="M37.9,22.7c-1.1,0-1.9,0.9-1.9,1.9c0,0.3,0.1,0.6,0.2,0.8l-6.4,6.4c-0.2-0.1-0.5-0.2-0.8-0.2s-0.6,0.1-0.8,0.2
	l-2.6-2.6c0.1-0.3,0.2-0.5,0.2-0.8c0-1.1-0.9-1.9-1.9-1.9c-1.1,0-1.9,0.9-1.9,1.9c0,0.3,0.1,0.6,0.2,0.8l-6.4,6.4
	c-0.3-0.1-0.5-0.2-0.8-0.2s-0.6,0.1-0.8,0.2l-2.6-2.6c0.1-0.2,0.2-0.5,0.2-0.8c0-1.1-0.9-1.9-1.9-1.9s-1.9,0.9-1.9,1.9
	c0,0.3,0.1,0.6,0.2,0.8l-6.4,6.4c-0.3-0.1-0.5-0.2-0.8-0.2c-1.1,0-1.9,0.9-1.9,1.9c0,1.1,0.9,1.9,1.9,1.9s1.9-0.9,1.9-1.9
	c0-0.3-0.1-0.6-0.2-0.8L8.9,34c0.3,0.1,0.5,0.2,0.8,0.2s0.6-0.1,0.8-0.2l2.6,2.6c-0.1,0.2-0.2,0.5-0.2,0.8c0,1.1,0.9,1.9,1.9,1.9
	s1.9-0.9,1.9-1.9c0-0.3-0.1-0.6-0.2-0.8l6.4-6.4c0.2,0.1,0.5,0.2,0.8,0.2c0.3,0,0.6-0.1,0.8-0.2l2.6,2.6C27.1,33,27,33.3,27,33.6
	c0,1.1,0.9,1.9,1.9,1.9c1.1,0,1.9-0.9,1.9-1.9c0-0.3-0.1-0.6-0.2-0.8l6.4-6.4c0.2,0.1,0.5,0.2,0.8,0.2c1.1,0,1.9-0.9,1.9-1.9
	C39.9,23.5,39,22.7,37.9,22.7z M0.7,41.9c-0.4,0-0.6-0.3-0.6-0.6s0.3-0.6,0.6-0.6s0.6,0.3,0.6,0.6S1.1,41.9,0.7,41.9z M9.1,32.3
	c0-0.4,0.3-0.6,0.6-0.6s0.6,0.3,0.6,0.6c0,0.4-0.3,0.6-0.6,0.6S9.1,32.6,9.1,32.3z M14.9,38.1c-0.4,0-0.6-0.3-0.6-0.6
	s0.3-0.6,0.6-0.6c0.4,0,0.6,0.3,0.6,0.6S15.2,38.1,14.9,38.1z M23.2,28.4c0-0.4,0.3-0.6,0.6-0.6s0.6,0.3,0.6,0.6
	c0,0.4-0.3,0.6-0.6,0.6S23.2,28.8,23.2,28.4z M29,34.2c-0.4,0-0.6-0.3-0.6-0.6s0.3-0.6,0.6-0.6s0.6,0.3,0.6,0.6S29.3,34.2,29,34.2z
	 M37.9,25.2c-0.4,0-0.6-0.3-0.6-0.6s0.3-0.6,0.6-0.6s0.6,0.3,0.6,0.6S38.3,25.2,37.9,25.2z"/>
<rect x="3.3" y="22" class="st1" width="1.3" height="1.3"/>
<rect x="5.9" y="22" class="st1" width="13.5" height="1.3"/>
<rect x="3.3" y="24.6" class="st1" width="1.3" height="1.3"/>
<rect x="5.9" y="24.6" class="st1" width="13.5" height="1.3"/>
<rect x="3.3" y="27.2" class="st1" width="1.3" height="1.3"/>
<rect x="5.9" y="27.2" class="st1" width="7.1" height="1.3"/>
</svg>
