<?xml version="1.0" encoding="utf-8"?>
<!-- Generator: Adobe Illustrator 23.0.1, SVG Export Plug-In . SVG Version: 6.00 Build 0)  -->
<svg version="1.1" id="Calque_1" xmlns="http://www.w3.org/2000/svg" xmlns:xlink="http://www.w3.org/1999/xlink" x="0px" y="0px"
	 viewBox="0 0 45 51" style="enable-background:new 0 0 45 51;" xml:space="preserve">
<style type="text/css">
	.st0{fill-rule:evenodd;clip-rule:evenodd;fill:#5639BB;fill-opacity:0.15;}
	.st1{fill:#5639BB;}
</style>
<g>
	<circle class="st0" cx="27" cy="18" r="18"/>
</g>
<g>
	<g>
		<g>
			<path class="st1" d="M10.4,41c-0.4,0-0.7-0.3-0.7-0.7c0-0.1-0.2-2.5,0.9-4.2c1.5-2.4,4.3-3.4,4.4-3.4c0.3-0.1,0.5,0,0.7,0.1
				c0,0,1.8,1.5,3.6,1.5h0.1c1.5,0,3.1-1.1,3.6-1.5c0.2-0.2,0.5-0.2,0.7-0.2c0.1,0,2.9,0.9,4.4,3.3c1.1,1.7,0.9,4.2,0.9,4.3
				c0,0.4-0.4,0.7-0.8,0.7c-0.4,0-0.7-0.4-0.7-0.8c0,0,0.1-2.1-0.7-3.4c-0.9-1.5-2.6-2.3-3.3-2.6c-0.7,0.5-2.4,1.6-4.2,1.6h-0.1
				c-1.8,0-3.5-1.1-4.2-1.6c-0.7,0.3-2.3,1.2-3.3,2.7c-0.7,1.1-0.7,2.8-0.7,3.3C11.2,40.6,10.9,40.9,10.4,41
				C10.4,41,10.4,41,10.4,41z"/>
		</g>
		<g>
			<path class="st1" d="M19.3,31.9c-2.8,0-5.1-2.3-5.1-5.1v-3.2c0-2.8,2.3-5.1,5.1-5.1s5.1,2.3,5.1,5.1v3.2
				C24.4,29.6,22.1,31.9,19.3,31.9z M19.3,19.9c-2,0-3.6,1.6-3.6,3.6v3.2c0,2,1.6,3.6,3.6,3.6c2,0,3.6-1.6,3.6-3.6v-3.2
				C22.9,21.6,21.3,19.9,19.3,19.9z"/>
		</g>
		<g>
			<path class="st1" d="M21.6,24.2c-0.6,0-1.3-0.1-2.1-0.4c-0.6-0.2-1-0.1-1.1-0.1c-0.4,0.2-0.8,0-1-0.4c-0.1-0.4,0-0.8,0.4-1
				c0.1,0,0.9-0.3,2.1,0c1.7,0.6,2.1,0.4,3.1-0.1c0.3-0.2,0.8-0.1,1,0.3c0.2,0.3,0.1,0.8-0.3,1C23,24,22.4,24.2,21.6,24.2z"/>
		</g>
		<g>
			<path class="st1" d="M5,42.9c-0.4,0-0.7-0.3-0.7-0.7V26.7c0-0.4,0.3-0.7,0.7-0.7h5.7c0.4,0,0.7,0.3,0.7,0.7
				c0,0.4-0.3,0.7-0.7,0.7h-5v14.8C5.8,42.6,5.4,42.9,5,42.9z"/>
		</g>
		<g>
			<path class="st1" d="M33.5,42.9c-0.4,0-0.7-0.3-0.7-0.7V27.4h-5.3c-0.4,0-0.7-0.3-0.7-0.7c0-0.4,0.3-0.7,0.7-0.7h6.1
				c0.4,0,0.7,0.3,0.7,0.7v15.5C34.3,42.6,33.9,42.9,33.5,42.9z"/>
		</g>
		<g>
			<path class="st1" d="M35.2,49.3H3.4c-1.7,0-3-1.4-3-3c0-1.5,0.7-2.6,2.1-3.4c0.6-0.3,2.1-1.3,2.2-1.3c0.3-0.2,0.8-0.1,1,0.2
				c0.2,0.3,0.1,0.8-0.2,1c-0.1,0-1.6,1.1-2.3,1.4c-0.9,0.5-1.3,1.1-1.3,2.1c0,0.9,0.7,1.6,1.5,1.6h31.9c0.9,0,1.5-0.7,1.5-1.6
				c0-1-0.3-1.4-1-1.9c-0.2-0.1-1.5-0.9-2.6-1.6c-0.3-0.2-0.5-0.7-0.3-1c0.2-0.3,0.6-0.5,1-0.3c0.4,0.2,2.4,1.4,2.8,1.6
				c1,0.7,1.6,1.5,1.6,3.1C38.3,47.9,36.9,49.3,35.2,49.3z"/>
		</g>
		<g>
			<path class="st1" d="M30.2,42H8.3c-0.4,0-0.7-0.3-0.7-0.7v-8.3c0-0.4,0.3-0.7,0.7-0.7c0.4,0,0.7,0.3,0.7,0.7v7.6h20.4V30.3
				c0-0.4,0.3-0.7,0.7-0.7c0.4,0,0.7,0.3,0.7,0.7v10.9C31,41.7,30.6,42,30.2,42z"/>
		</g>
		<g>
			<path class="st1" d="M22.3,46h-6c-0.4,0-0.7-0.3-0.7-0.7c0-0.4,0.3-0.7,0.7-0.7h6c0.4,0,0.7,0.3,0.7,0.7C23,45.6,22.7,46,22.3,46
				z"/>
		</g>
	</g>
</g>
</svg>
