<?xml version="1.0" encoding="utf-8"?>
<!-- Generator: Adobe Illustrator 23.0.1, SVG Export Plug-In . SVG Version: 6.00 Build 0)  -->
<svg version="1.1" id="Calque_1" xmlns="http://www.w3.org/2000/svg" xmlns:xlink="http://www.w3.org/1999/xlink" x="0px" y="0px"
	 viewBox="0 0 45 51" style="enable-background:new 0 0 45 51;" xml:space="preserve">
<style type="text/css">
	.st0{fill-rule:evenodd;clip-rule:evenodd;fill:#5639BB;fill-opacity:0.15;}
	.st1{fill:#5639BB;}
</style>
<g>
	<circle class="st0" cx="27" cy="18" r="18"/>
</g>
<g>
	<g>
		<path class="st1" d="M18.7,41.7c-0.5,0-1,0-1.5-0.1c-0.3,0-0.5-0.2-0.5-0.5l-0.4-2.6l-0.1,0L14.1,40c-0.1,0.1-0.2,0.1-0.4,0.1
			c-0.1,0-0.3,0-0.4-0.1c-0.8-0.6-1.5-1.3-2.1-2.1c-0.2-0.2-0.2-0.5,0-0.7l1.6-2.1l-0.1-0.1l-2.6-0.4c-0.3,0-0.5-0.2-0.5-0.5
			c-0.1-0.5-0.1-1-0.1-1.5c0-0.5,0-1,0.1-1.5c0-0.3,0.2-0.5,0.5-0.5l2.6-0.4l0-0.2l-1.6-2.1c-0.2-0.2-0.2-0.5,0-0.7
			c0.6-0.8,1.3-1.5,2.1-2.1c0.1-0.1,0.2-0.1,0.4-0.1c0.1,0,0.3,0,0.4,0.1l2.1,1.6l0.1-0.1l0.4-2.6c0-0.3,0.2-0.5,0.5-0.5
			c0.5-0.1,1-0.1,1.5-0.1s1,0,1.5,0.1c0.3,0,0.5,0.2,0.5,0.5l0.4,2.6l0.2,0l2.1-1.6c0.1-0.1,0.2-0.1,0.4-0.1c0.1,0,0.3,0,0.4,0.1
			c0.8,0.6,1.5,1.3,2.1,2.1c0.2,0.2,0.2,0.5,0,0.7l-1.6,2.1l0.1,0.1l2.6,0.4c0.3,0,0.5,0.2,0.5,0.5c0.1,0.5,0.1,1,0.1,1.5
			s0,1-0.1,1.5c0,0.3-0.2,0.5-0.5,0.5l-2.6,0.4l0,0.2l1.5,2.1c0.2,0.2,0.2,0.5,0,0.7c-0.6,0.8-1.3,1.5-2.1,2.1
			c-0.1,0.1-0.2,0.1-0.4,0.1c-0.1,0-0.3,0-0.4-0.1l-2.1-1.6l-0.1,0.1l-0.4,2.6c0,0.3-0.2,0.5-0.5,0.5C19.8,41.7,19.3,41.7,18.7,41.7
			z M18,40.5c0.2,0,0.5,0,0.7,0c0.3,0,0.6,0,0.9-0.1L20,38c0-0.2,0.2-0.4,0.4-0.5c0.2-0.1,0.5-0.2,0.7-0.3c0.1,0,0.2-0.1,0.3-0.1
			c0.1,0,0.3,0,0.4,0.1l2.1,1.5c0.4-0.4,0.8-0.8,1.2-1.3l-1.5-2c-0.1-0.2-0.2-0.4-0.1-0.6c0.1-0.2,0.2-0.5,0.3-0.7
			c0.1-0.2,0.3-0.4,0.5-0.4l2.5-0.4c0-0.3,0-0.6,0-0.9s0-0.6-0.1-0.9l-2.5-0.4c-0.2,0-0.4-0.2-0.5-0.4s-0.2-0.4-0.3-0.7
			c-0.1-0.2-0.1-0.5,0.1-0.6l1.5-2.1c-0.4-0.4-0.8-0.8-1.3-1.2l-2,1.5c-0.1,0.1-0.2,0.1-0.4,0.1c-0.1,0-0.2,0-0.3-0.1
			c-0.2-0.1-0.5-0.2-0.7-0.3C20.2,27.4,20,27.2,20,27l-0.4-2.5c0,0-0.1,0-0.1,0c-0.2,0-0.5,0-0.7,0c-0.3,0-0.6,0-0.9,0.1L17.5,27
			c0,0.2-0.2,0.4-0.4,0.5c-0.2,0.1-0.4,0.2-0.7,0.3c-0.1,0-0.2,0.1-0.3,0.1c-0.1,0-0.3,0-0.4-0.1l-2.1-1.5c-0.4,0.4-0.8,0.8-1.2,1.3
			l1.5,2c0.1,0.2,0.2,0.4,0.1,0.6c-0.1,0.2-0.2,0.4-0.3,0.7c-0.1,0.2-0.3,0.4-0.5,0.4l-2.5,0.4c0,0.3,0,0.6,0,0.9s0,0.6,0.1,0.9
			l2.5,0.4c0.2,0,0.4,0.2,0.5,0.4c0.1,0.2,0.2,0.5,0.3,0.7c0.1,0.2,0.1,0.5,0,0.6l-1.5,2.1c0.4,0.4,0.8,0.8,1.3,1.2l2-1.5
			c0.1-0.1,0.2-0.1,0.4-0.1c0.1,0,0.2,0,0.3,0.1c0.2,0.1,0.4,0.2,0.7,0.3c0.2,0.1,0.4,0.3,0.4,0.5l0.4,2.5
			C17.9,40.5,18,40.5,18,40.5z"/>
		<path class="st1" d="M18.7,23.3c0.5,0,1,0,1.5,0.1c0.2,0,0.4,0.2,0.5,0.5l0.4,2.6c0.1,0,0.1,0.1,0.2,0.1l2.1-1.6
			c0.1-0.1,0.2-0.1,0.3-0.1c0.1,0,0.2,0,0.3,0.1c0.8,0.6,1.5,1.3,2.1,2.1c0.1,0.2,0.1,0.5,0,0.7l-1.6,2.1c0,0.1,0.1,0.1,0.1,0.2
			l2.6,0.4c0.2,0,0.4,0.2,0.5,0.5c0.1,0.5,0.1,1,0.1,1.5c0,0.5,0,1-0.1,1.5c0,0.2-0.2,0.4-0.5,0.5l-2.6,0.4c0,0.1-0.1,0.1-0.1,0.2
			l1.6,2.1c0.1,0.2,0.1,0.5,0,0.7c-0.6,0.8-1.3,1.5-2.1,2.1c-0.1,0.1-0.2,0.1-0.3,0.1c-0.1,0-0.2,0-0.3-0.1l-2.1-1.6
			c-0.1,0-0.1,0.1-0.2,0.1l-0.4,2.6c0,0.2-0.2,0.4-0.5,0.5c-0.5,0.1-1,0.1-1.5,0.1c-0.5,0-1,0-1.5-0.1c-0.2,0-0.4-0.2-0.5-0.5
			l-0.4-2.6c-0.1,0-0.1-0.1-0.2-0.1L14,40c-0.1,0.1-0.2,0.1-0.3,0.1c-0.1,0-0.2,0-0.3-0.1c-0.8-0.6-1.5-1.3-2.1-2.1
			c-0.1-0.2-0.1-0.5,0-0.7l1.6-2.1c0-0.1-0.1-0.1-0.1-0.2l-2.6-0.4c-0.2,0-0.4-0.2-0.5-0.5c-0.1-0.5-0.1-1-0.1-1.5
			c0-0.5,0-1,0.1-1.5c0-0.2,0.2-0.4,0.5-0.5l2.6-0.4c0-0.1,0.1-0.1,0.1-0.2l-1.6-2.1c-0.1-0.2-0.1-0.5,0-0.7
			c0.6-0.8,1.3-1.5,2.1-2.1c0.1-0.1,0.2-0.1,0.3-0.1c0.1,0,0.2,0,0.3,0.1l2.1,1.6c0.1,0,0.1-0.1,0.2-0.1l0.4-2.6
			c0-0.2,0.2-0.4,0.5-0.5C17.7,23.3,18.2,23.3,18.7,23.3 M16.1,27.8c-0.1,0-0.2,0-0.3-0.1l-2.1-1.5c-0.5,0.4-0.9,0.8-1.3,1.3
			l1.5,2.1c0.1,0.2,0.1,0.4,0,0.6c-0.1,0.2-0.2,0.4-0.3,0.7c-0.1,0.2-0.2,0.3-0.4,0.4l-2.5,0.4c0,0.3-0.1,0.6-0.1,0.9
			c0,0.3,0,0.6,0.1,0.9l2.5,0.4c0.2,0,0.4,0.2,0.4,0.4c0.1,0.2,0.2,0.5,0.3,0.7c0.1,0.2,0.1,0.4,0,0.6l-1.5,2.1
			c0.4,0.5,0.8,0.9,1.3,1.3l2.1-1.5c0.1-0.1,0.2-0.1,0.3-0.1c0.1,0,0.2,0,0.3,0.1c0.2,0.1,0.4,0.2,0.7,0.3c0.2,0.1,0.3,0.2,0.4,0.4
			l0.4,2.5c0.3,0,0.6,0.1,0.9,0.1s0.6,0,0.9-0.1l0.4-2.5c0-0.2,0.2-0.4,0.4-0.4c0.2-0.1,0.5-0.2,0.7-0.3c0.1,0,0.2-0.1,0.3-0.1
			c0.1,0,0.2,0,0.3,0.1l2.1,1.5c0.5-0.4,0.9-0.8,1.3-1.3l-1.5-2.1c-0.1-0.2-0.1-0.4,0-0.6c0.1-0.2,0.2-0.5,0.3-0.7
			c0.1-0.2,0.2-0.3,0.4-0.4l2.5-0.4c0-0.3,0.1-0.6,0.1-0.9c0-0.3,0-0.6-0.1-0.9l-2.5-0.4c-0.2,0-0.4-0.2-0.4-0.4
			c-0.1-0.2-0.2-0.5-0.3-0.7c-0.1-0.2-0.1-0.4,0-0.6l1.5-2.1c-0.4-0.5-0.8-0.9-1.3-1.3l-2.1,1.5c-0.1,0.1-0.2,0.1-0.3,0.1
			c-0.1,0-0.2,0-0.3-0.1c-0.2-0.1-0.5-0.2-0.7-0.3c-0.2-0.1-0.3-0.2-0.4-0.4l-0.4-2.5c-0.3,0-0.6-0.1-0.9-0.1s-0.6,0-0.9,0.1
			L17.4,27c0,0.2-0.2,0.4-0.4,0.4c-0.2,0.1-0.4,0.2-0.7,0.3C16.3,27.7,16.2,27.8,16.1,27.8 M18.7,23.2c-0.5,0-1,0-1.5,0.1
			c-0.3,0-0.5,0.3-0.5,0.5l-0.4,2.6c0,0-0.1,0-0.1,0l-2.1-1.5c-0.1-0.1-0.2-0.1-0.4-0.1c-0.1,0-0.3,0-0.4,0.1
			c-0.8,0.6-1.5,1.3-2.1,2.1c-0.2,0.2-0.2,0.5,0,0.8l1.5,2.1c0,0,0,0.1,0,0.1l-2.6,0.4c-0.3,0-0.5,0.3-0.5,0.5
			c-0.1,0.5-0.1,1-0.1,1.5c0,0.5,0,1,0.1,1.5c0,0.3,0.3,0.5,0.5,0.5l2.6,0.4c0,0,0,0.1,0,0.1l-1.5,2.1c-0.2,0.2-0.2,0.5,0,0.8
			c0.6,0.8,1.3,1.5,2.1,2.1c0.1,0.1,0.2,0.1,0.4,0.1c0.1,0,0.3,0,0.4-0.1l2.1-1.5c0,0,0.1,0,0.1,0l0.4,2.6c0,0.3,0.3,0.5,0.5,0.6
			c0.5,0.1,1,0.1,1.5,0.1c0.5,0,1,0,1.5-0.1c0.3,0,0.5-0.3,0.5-0.5l0.4-2.6c0,0,0.1,0,0.1,0l2.1,1.5c0.1,0.1,0.2,0.1,0.4,0.1
			c0.1,0,0.3,0,0.4-0.1c0.8-0.6,1.5-1.3,2.1-2.1c0.2-0.2,0.2-0.5,0-0.8L24.8,35c0,0,0-0.1,0-0.1l2.6-0.4c0.3,0,0.5-0.3,0.6-0.5
			c0.1-0.5,0.1-1,0.1-1.5c0-0.5,0-1-0.1-1.5c0-0.3-0.3-0.5-0.6-0.5L24.8,30c0,0,0-0.1,0-0.1l1.5-2.1c0.2-0.2,0.2-0.5,0-0.8
			c-0.6-0.8-1.3-1.5-2.1-2.1c-0.1-0.1-0.2-0.1-0.4-0.1c-0.1,0-0.3,0-0.4,0.1l-2.1,1.5c0,0-0.1,0-0.1,0l-0.4-2.6
			c0-0.3-0.3-0.5-0.5-0.6C19.8,23.2,19.3,23.2,18.7,23.2L18.7,23.2z M17.9,24.5c0.3,0,0.5,0,0.8,0c0.3,0,0.6,0,0.8,0L20,27
			c0,0.2,0.2,0.4,0.4,0.5c0.2,0.1,0.4,0.2,0.7,0.3c0.1,0,0.2,0.1,0.3,0.1c0.1,0,0.3,0,0.4-0.1l2-1.5c0.4,0.3,0.8,0.7,1.2,1.2l-1.5,2
			c-0.1,0.2-0.2,0.5-0.1,0.7c0.1,0.2,0.2,0.5,0.3,0.7c0.1,0.2,0.3,0.4,0.5,0.4l2.5,0.4c0,0.3,0,0.6,0,0.8c0,0.3,0,0.5,0,0.8
			l-2.5,0.4c-0.2,0-0.4,0.2-0.5,0.4c-0.1,0.2-0.2,0.4-0.3,0.7c-0.1,0.2-0.1,0.5,0.1,0.7l1.5,2c-0.3,0.4-0.7,0.8-1.2,1.2l-2-1.5
			c-0.1-0.1-0.2-0.1-0.4-0.1c-0.1,0-0.2,0-0.3,0.1c-0.2,0.1-0.4,0.2-0.7,0.3C20.2,37.5,20,37.7,20,38l-0.4,2.5c-0.3,0-0.5,0-0.8,0
			c-0.3,0-0.6,0-0.8,0L17.5,38c0-0.2-0.2-0.4-0.4-0.5c-0.2-0.1-0.5-0.2-0.7-0.3c-0.1,0-0.2-0.1-0.3-0.1c-0.1,0-0.3,0-0.4,0.1l-2,1.5
			c-0.4-0.3-0.8-0.7-1.2-1.2l1.5-2c0.1-0.2,0.2-0.5,0.1-0.7c-0.1-0.2-0.2-0.4-0.3-0.7c-0.1-0.2-0.3-0.4-0.5-0.4l-2.5-0.4
			c0-0.3,0-0.5,0-0.8c0-0.3,0-0.6,0-0.8l2.5-0.4c0.2,0,0.4-0.2,0.5-0.4c0.1-0.2,0.2-0.4,0.3-0.7c0.1-0.2,0.1-0.5-0.1-0.7l-1.5-2
			c0.3-0.4,0.7-0.8,1.2-1.2l2,1.5c0.1,0.1,0.2,0.1,0.4,0.1c0.1,0,0.2,0,0.3-0.1c0.2-0.1,0.5-0.2,0.7-0.3c0.2-0.1,0.4-0.3,0.4-0.5
			L17.9,24.5L17.9,24.5z"/>
	</g>
	<g>
		<path class="st1" d="M18.7,35.5c-1.7,0-3.1-1.4-3.1-3.1c0-1.7,1.4-3.1,3.1-3.1c1.7,0,3.1,1.4,3.1,3.1
			C21.8,34.2,20.4,35.5,18.7,35.5z M18.7,30.6c-1,0-1.8,0.8-1.8,1.8s0.8,1.8,1.8,1.8s1.8-0.8,1.8-1.8S19.8,30.6,18.7,30.6z"/>
		<path class="st1" d="M18.7,29.5c1.7,0,3,1.4,3,3c0,1.7-1.3,3-3,3c-1.7,0-3-1.3-3-3C15.7,30.8,17.1,29.5,18.7,29.5 M18.7,34.4
			c1,0,1.9-0.8,1.9-1.9c0-1-0.8-1.9-1.9-1.9c-1,0-1.9,0.8-1.9,1.9C16.9,33.5,17.7,34.4,18.7,34.4 M18.7,29.4c-1.7,0-3.1,1.4-3.1,3.1
			c0,1.7,1.4,3.1,3.1,3.1c1.7,0,3.1-1.4,3.1-3.1C21.9,30.8,20.5,29.4,18.7,29.4L18.7,29.4z M18.7,34.3c-1,0-1.8-0.8-1.8-1.8
			c0-1,0.8-1.8,1.8-1.8c1,0,1.8,0.8,1.8,1.8C20.5,33.5,19.7,34.3,18.7,34.3L18.7,34.3z"/>
	</g>
	<g>
		<path class="st1" d="M25.8,16.5c-0.1,0-0.2,0-0.2-0.1c-0.3-0.1-0.6-0.2-0.9-0.4c-0.2-0.1-0.3-0.2-0.3-0.3s-0.1-0.3,0-0.5
			c0.1-0.2,0.3-0.4,0.6-0.4c0.1,0,0.1,0,0.2,0c0.3,0.1,0.6,0.2,1,0.4c0.2,0.1,0.3,0.2,0.3,0.3s0.1,0.3,0,0.5
			C26.3,16.3,26.1,16.5,25.8,16.5z"/>
		<path class="st1" d="M24.9,14.9c0.1,0,0.1,0,0.2,0c0.3,0.1,0.6,0.2,1,0.4c0.3,0.1,0.4,0.5,0.3,0.7c-0.1,0.2-0.3,0.3-0.5,0.3
			c-0.1,0-0.1,0-0.2,0c-0.3-0.1-0.6-0.2-0.9-0.4c-0.3-0.1-0.4-0.4-0.3-0.7C24.4,15.1,24.7,14.9,24.9,14.9 M24.9,14.8
			c-0.3,0-0.5,0.2-0.6,0.4c-0.1,0.2-0.1,0.3,0,0.5c0.1,0.2,0.2,0.3,0.4,0.3c0.3,0.1,0.6,0.2,0.9,0.4c0.1,0,0.2,0.1,0.3,0.1
			c0.3,0,0.5-0.2,0.6-0.4c0.1-0.3,0-0.7-0.3-0.9c-0.3-0.1-0.7-0.3-1-0.4C25,14.9,25,14.8,24.9,14.8L24.9,14.8z"/>
	</g>
	<g>
		<path class="st1" d="M22.6,15.5c0,0-0.1,0-0.1,0c-0.3-0.1-0.6-0.1-1-0.2c-0.3-0.1-0.6-0.4-0.5-0.7c0-0.3,0.3-0.5,0.6-0.5l0.1,0
			c0.3,0.1,0.7,0.1,1,0.2c0.3,0.1,0.5,0.4,0.5,0.7C23.2,15.3,22.9,15.5,22.6,15.5z"/>
		<path class="st1" d="M21.7,14.1C21.7,14.1,21.7,14.1,21.7,14.1c0.4,0.1,0.8,0.1,1.1,0.2c0.3,0.1,0.5,0.4,0.4,0.7
			c-0.1,0.3-0.3,0.4-0.5,0.4c0,0-0.1,0-0.1,0c-0.3-0.1-0.6-0.1-1-0.2c-0.3,0-0.5-0.3-0.5-0.6C21.1,14.3,21.4,14.1,21.7,14.1
			 M21.7,14c-0.3,0-0.6,0.2-0.7,0.6c-0.1,0.4,0.2,0.7,0.5,0.8c0.3,0.1,0.6,0.1,1,0.2c0,0,0.1,0,0.1,0c0.3,0,0.6-0.2,0.6-0.5
			c0.1-0.4-0.1-0.7-0.5-0.8c-0.3-0.1-0.7-0.1-1-0.2C21.7,14,21.7,14,21.7,14L21.7,14z"/>
	</g>
	<g>
		<path class="st1" d="M31.4,20.2c-0.2,0-0.3-0.1-0.4-0.2c-0.2-0.2-0.5-0.4-0.7-0.7c-0.3-0.2-0.3-0.6-0.1-0.9
			c0.1-0.1,0.3-0.2,0.5-0.2c0.1,0,0.3,0.1,0.4,0.2c0.3,0.2,0.5,0.5,0.8,0.7c0.2,0.2,0.2,0.6,0,0.9C31.7,20.1,31.5,20.2,31.4,20.2z"
			/>
		<path class="st1" d="M30.6,18.3c0.1,0,0.3,0,0.4,0.1c0.3,0.2,0.5,0.5,0.8,0.7c0.2,0.2,0.2,0.6,0,0.8c-0.1,0.1-0.3,0.2-0.4,0.2
			c-0.1,0-0.3-0.1-0.4-0.2c-0.2-0.2-0.5-0.4-0.7-0.7c-0.2-0.2-0.3-0.6-0.1-0.8C30.3,18.4,30.5,18.3,30.6,18.3 M30.6,18.2
			c-0.2,0-0.4,0.1-0.5,0.2C30,18.6,30,18.8,30,18.9c0,0.2,0.1,0.3,0.2,0.5c0.2,0.2,0.5,0.4,0.7,0.7c0.1,0.1,0.3,0.2,0.5,0.2
			c0.2,0,0.3-0.1,0.5-0.2c0.3-0.3,0.3-0.7,0-0.9c-0.2-0.2-0.5-0.5-0.8-0.7C30.9,18.3,30.8,18.2,30.6,18.2L30.6,18.2z"/>
	</g>
	<g>
		<path class="st1" d="M28.8,18.1c-0.1,0-0.2,0-0.3-0.1c-0.3-0.2-0.5-0.4-0.8-0.5c-0.3-0.2-0.4-0.5-0.2-0.8c0.1-0.2,0.3-0.3,0.5-0.3
			c0.1,0,0.2,0,0.3,0.1c0.3,0.2,0.6,0.4,0.9,0.6c0.3,0.2,0.4,0.6,0.2,0.9C29.2,18,29,18.1,28.8,18.1z"/>
		<path class="st1" d="M27.9,16.4c0.1,0,0.2,0,0.3,0.1c0.3,0.2,0.6,0.4,0.9,0.6c0.3,0.2,0.3,0.5,0.2,0.8C29.1,17.9,29,18,28.8,18
			c-0.1,0-0.2,0-0.3-0.1c-0.3-0.2-0.5-0.4-0.8-0.5c-0.3-0.2-0.4-0.5-0.2-0.8C27.5,16.5,27.7,16.4,27.9,16.4 M27.9,16.3
			c-0.2,0-0.5,0.1-0.6,0.3c-0.2,0.3-0.1,0.7,0.2,0.9c0.3,0.2,0.6,0.3,0.8,0.5c0.1,0.1,0.2,0.1,0.4,0.1c0.2,0,0.4-0.1,0.6-0.3
			c0.2-0.3,0.1-0.7-0.2-0.9c-0.3-0.2-0.6-0.4-0.9-0.6C28.2,16.3,28,16.3,27.9,16.3L27.9,16.3z"/>
	</g>
	<g>
		<path class="st1" d="M18.7,51.1c-6.4,0-12.3-3.3-15.8-8.7c-1.9-3-2.9-6.4-2.9-10c0-10.3,8.4-18.7,18.7-18.7c0.2,0,0.4,0,0.6,0
			c0.2,0,0.3,0.1,0.4,0.2c0.1,0.1,0.2,0.3,0.2,0.4c0,0.3-0.3,0.6-0.6,0.6l0,4.5c3.7,0.1,7.2,1.9,9.5,4.8l3.6-2.7
			c-0.2-0.2-0.2-0.6,0.1-0.8c0.1-0.1,0.2-0.1,0.4-0.1c0.2,0,0.4,0.1,0.5,0.2c0.1,0.2,0.2,0.3,0.4,0.5c2.4,3.2,3.6,7.1,3.6,11.1
			c0,5.6-2.5,10.9-6.9,14.5C27.2,49.6,23,51.1,18.7,51.1z M4.3,42.3c3.3,4.7,8.7,7.6,14.4,7.6c3.8,0,7.5-1.3,10.5-3.6l-2.9-3.4
			c-0.1,0.1-0.2,0.1-0.3,0.1c-0.2,0-0.4-0.1-0.5-0.2c-0.1-0.1-0.1-0.3-0.1-0.5c0-0.2,0.1-0.3,0.2-0.4c0.1-0.1,0.3-0.2,0.4-0.3
			c2.8-2.3,4.4-5.6,4.4-9.2c0-2.5-0.8-4.9-2.3-7c-2.3-3.1-5.7-4.8-9.5-4.8C12.2,20.7,7,26,7,32.5c0,2.2,0.6,4.4,1.8,6.3
			c0.1,0.2,0.2,0.3,0.3,0.4c0.2,0.3,0.1,0.7-0.2,0.9c-0.1,0.1-0.2,0.1-0.4,0.1c-0.2,0-0.4-0.1-0.5-0.2L4.3,42.3z M29.5,25.3
			c1.5,2.1,2.2,4.6,2.2,7.2c0,3.7-1.6,7.3-4.4,9.7l2.9,3.4c3.7-3.3,5.9-8.1,5.9-13.2c0-3.5-1.1-6.9-3-9.8L29.5,25.3z M18.1,15.1
			C8.7,15.4,1.3,23,1.3,32.5c0,3.1,0.8,6.2,2.4,8.8l3.8-2.4c-1.1-1.9-1.7-4.1-1.7-6.4c0-7,5.5-12.7,12.5-13L18.1,15.1z"/>
		<path class="st1" d="M18.7,13.9c0.2,0,0.4,0,0.6,0c0.3,0,0.6,0.3,0.5,0.6c0,0.3-0.3,0.5-0.6,0.5v4.5c3.7,0.2,7.2,1.9,9.5,4.8
			l3.7-2.7c-0.2-0.2-0.1-0.6,0.1-0.8c0.1-0.1,0.2-0.1,0.3-0.1c0.2,0,0.3,0.1,0.4,0.2c0.1,0.2,0.2,0.3,0.4,0.5c2.4,3.2,3.6,7,3.6,11
			c0,5.6-2.5,10.9-6.9,14.4c0,0,0,0,0,0c-3.3,2.7-7.5,4.2-11.7,4.2c-6.4,0-12.3-3.2-15.7-8.7c-1.9-3-2.9-6.4-2.9-9.9
			C0.1,22.2,8.5,13.9,18.7,13.9 M3.7,41.3l3.8-2.4c-1.1-2-1.7-4.2-1.7-6.4c0-7,5.5-12.7,12.4-13V15C8.8,15.3,1.3,23,1.3,32.5
			C1.3,35.6,2.1,38.6,3.7,41.3 M8.6,40.1c-0.2,0-0.4-0.1-0.5-0.2c0,0,0,0,0,0l-3.8,2.4c3.3,4.8,8.6,7.7,14.5,7.7
			c3.8,0,7.6-1.3,10.6-3.6l-2.8-3.5c0,0,0,0,0,0C26.4,43,26.2,43,26.1,43c-0.2,0-0.3-0.1-0.5-0.2c-0.2-0.3-0.1-0.6,0.1-0.8
			c0.1-0.1,0.3-0.2,0.4-0.3c0,0,0,0,0,0c2.8-2.3,4.4-5.6,4.4-9.2c0-2.5-0.8-5-2.3-7c-2.3-3.1-5.7-4.8-9.5-4.8
			c-6.5,0-11.8,5.3-11.8,11.8c0,2.2,0.6,4.4,1.8,6.3c0,0,0,0,0,0c0,0,0,0,0,0c0.1,0.2,0.2,0.3,0.3,0.4c0.2,0.3,0.1,0.6-0.1,0.8
			C8.8,40.1,8.7,40.1,8.6,40.1 M30.2,45.7c3.8-3.3,6-8.1,6-13.2c0-3.6-1.1-7-3.1-9.9l-3.6,2.7c1.4,2.1,2.2,4.6,2.2,7.2
			c0,3.7-1.6,7.2-4.4,9.7L30.2,45.7 M18.7,13.8C8.4,13.8,0,22.2,0,32.5c0,3.5,1,7,2.9,10c3.5,5.5,9.4,8.7,15.8,8.7
			c4.3,0,8.5-1.5,11.8-4.2h0l0,0c4.4-3.6,6.9-8.9,6.9-14.5c0-4-1.3-7.9-3.6-11.1c-0.1-0.2-0.2-0.3-0.4-0.5c-0.1-0.2-0.3-0.3-0.5-0.3
			c-0.2,0-0.3,0-0.4,0.1c-0.3,0.2-0.3,0.5-0.2,0.8l-3.5,2.6c-2.3-2.9-5.8-4.6-9.4-4.8v-4.3c0.3,0,0.6-0.3,0.6-0.6
			c0-0.2-0.1-0.3-0.2-0.5c-0.1-0.1-0.3-0.2-0.5-0.2C19.1,13.8,18.9,13.8,18.7,13.8L18.7,13.8z M3.7,41.2c-1.5-2.6-2.3-5.6-2.3-8.7
			c0-4.5,1.7-8.8,4.9-12.1c3.1-3.2,7.3-5.1,11.8-5.3v4.3c-7,0.3-12.4,6.1-12.4,13.1c0,2.2,0.6,4.4,1.7,6.4L3.7,41.2L3.7,41.2z
			 M8.8,38.7c-1.2-1.9-1.8-4-1.8-6.3c0-6.5,5.3-11.7,11.7-11.7c3.8,0,7.2,1.7,9.4,4.8c1.5,2,2.3,4.4,2.3,7c0,3.5-1.6,6.9-4.3,9.1
			l0,0l0,0c-0.1,0.1-0.3,0.2-0.4,0.3c-0.1,0.1-0.2,0.3-0.3,0.4c0,0.2,0,0.4,0.1,0.5c0.1,0.2,0.3,0.3,0.5,0.3c0.1,0,0.2,0,0.3-0.1
			l2.7,3.4c-3,2.2-6.7,3.5-10.4,3.5C13,49.9,7.7,47,4.4,42.3L8.1,40c0.1,0.1,0.3,0.2,0.5,0.2c0.1,0,0.3,0,0.4-0.1
			c0.1-0.1,0.2-0.3,0.3-0.4c0-0.2,0-0.4-0.1-0.5C9,39,8.9,38.9,8.8,38.7L8.8,38.7L8.8,38.7L8.8,38.7z M29.6,25.3l3.5-2.6
			c2,2.9,3,6.3,3,9.8c0,5-2.2,9.8-5.9,13.1l-2.7-3.4c2.7-2.5,4.3-6,4.3-9.7C31.8,29.9,31.1,27.4,29.6,25.3L29.6,25.3z"/>
	</g>
	<g>
		<path class="st1" d="M17.2,45.4c-0.4,0-0.7-0.1-1.1-0.2c-0.2,0-0.3-0.1-0.4-0.3c-0.1-0.1-0.1-0.3-0.1-0.5c0.1-0.3,0.3-0.5,0.6-0.5
			c0,0,0.1,0,0.1,0c0.3,0.1,0.6,0.1,1,0.2c0.3,0,0.6,0.3,0.5,0.7C17.8,45.2,17.6,45.4,17.2,45.4L17.2,45.4z"/>
		<path class="st1" d="M16.2,44.1c0,0,0.1,0,0.1,0c0.3,0.1,0.7,0.1,1,0.2c0.3,0,0.5,0.3,0.5,0.6c0,0.3-0.3,0.5-0.6,0.5
			c0,0,0,0-0.1,0c-0.4,0-0.7-0.1-1.1-0.2c-0.3-0.1-0.5-0.4-0.4-0.7C15.7,44.2,16,44.1,16.2,44.1 M16.2,44c-0.3,0-0.6,0.2-0.6,0.5
			c0,0.2,0,0.4,0.1,0.5c0.1,0.1,0.2,0.2,0.4,0.3c0.4,0.1,0.7,0.1,1.1,0.2c0,0,0.1,0,0.1,0c0.3,0,0.6-0.3,0.7-0.6
			c0-0.4-0.2-0.7-0.6-0.7c-0.3,0-0.7-0.1-1-0.2C16.3,44,16.3,44,16.2,44L16.2,44z"/>
	</g>
	<g>
		<path class="st1" d="M23.1,44.7c-0.3,0-0.5-0.2-0.6-0.4c-0.1-0.3,0-0.7,0.4-0.8c0.3-0.1,0.6-0.2,0.9-0.4c0.1,0,0.2-0.1,0.3-0.1
			c0.2,0,0.5,0.1,0.6,0.4c0.1,0.1,0.1,0.3,0,0.5c-0.1,0.2-0.2,0.3-0.3,0.3c-0.3,0.2-0.7,0.3-1,0.4C23.2,44.7,23.2,44.7,23.1,44.7z"
			/>
		<path class="st1" d="M24,43.1c0.2,0,0.4,0.1,0.5,0.3c0.1,0.3,0,0.6-0.3,0.8c-0.3,0.2-0.7,0.3-1,0.4c-0.1,0-0.1,0-0.2,0
			c-0.2,0-0.4-0.1-0.5-0.4c-0.1-0.3,0-0.6,0.3-0.7c0.3-0.1,0.6-0.2,0.9-0.4C23.9,43.1,24,43.1,24,43.1 M24,43c-0.1,0-0.2,0-0.3,0.1
			c-0.3,0.1-0.6,0.3-0.9,0.4c-0.2,0.1-0.3,0.2-0.4,0.3c-0.1,0.2-0.1,0.3,0,0.5c0.1,0.3,0.3,0.4,0.6,0.4c0.1,0,0.2,0,0.2,0
			c0.3-0.1,0.7-0.3,1-0.4c0.2-0.1,0.3-0.2,0.3-0.4c0.1-0.2,0.1-0.3,0-0.5C24.5,43.2,24.3,43,24,43L24,43z"/>
	</g>
	<g>
		<path class="st1" d="M19.7,45.5c-0.3,0-0.6-0.2-0.6-0.6c0-0.3,0.2-0.6,0.6-0.7c0.3,0,0.7-0.1,1-0.1c0,0,0,0,0,0
			c0.4,0,0.6,0.2,0.7,0.5c0,0.2,0,0.3-0.1,0.5c-0.1,0.1-0.2,0.2-0.4,0.2C20.5,45.4,20.1,45.4,19.7,45.5L19.7,45.5z"/>
		<path class="st1" d="M20.7,44.2c0.3,0,0.5,0.2,0.6,0.5c0.1,0.3-0.2,0.6-0.5,0.6c-0.4,0.1-0.7,0.1-1.1,0.1c0,0,0,0,0,0
			c-0.3,0-0.5-0.2-0.6-0.5c0-0.3,0.2-0.6,0.5-0.6C20,44.3,20.3,44.2,20.7,44.2C20.7,44.2,20.7,44.2,20.7,44.2 M20.7,44.1
			c0,0-0.1,0-0.1,0c-0.3,0.1-0.7,0.1-1,0.1c-0.4,0-0.6,0.3-0.6,0.7c0,0.3,0.3,0.6,0.7,0.6c0,0,0,0,0,0c0.4,0,0.7-0.1,1.1-0.1
			c0.4-0.1,0.6-0.4,0.6-0.8C21.3,44.3,21,44.1,20.7,44.1L20.7,44.1z"/>
	</g>
	<g>
		<path class="st1" d="M13.9,44.5c-0.1,0-0.2,0-0.2,0c-0.3-0.1-0.7-0.3-1-0.5c-0.3-0.2-0.4-0.5-0.3-0.8c0.1-0.2,0.3-0.3,0.5-0.3
			c0.1,0,0.2,0,0.3,0.1c0.3,0.2,0.6,0.3,0.9,0.4c0.3,0.1,0.5,0.5,0.3,0.8C14.4,44.4,14.2,44.5,13.9,44.5z"/>
		<path class="st1" d="M13,42.9c0.1,0,0.2,0,0.3,0.1c0.3,0.2,0.6,0.3,0.9,0.4c0.3,0.1,0.4,0.5,0.3,0.7c-0.1,0.2-0.3,0.3-0.5,0.3
			c-0.1,0-0.1,0-0.2,0c-0.3-0.1-0.7-0.3-1-0.5c-0.3-0.1-0.4-0.5-0.2-0.8C12.6,43,12.8,42.9,13,42.9 M13,42.8c-0.2,0-0.5,0.1-0.6,0.4
			c-0.2,0.3,0,0.7,0.3,0.9c0.3,0.2,0.7,0.3,1,0.5c0.1,0,0.2,0.1,0.3,0.1c0.3,0,0.5-0.2,0.6-0.4c0.1-0.3,0-0.7-0.4-0.9
			c-0.3-0.1-0.6-0.3-0.9-0.4C13.2,42.8,13.1,42.8,13,42.8L13,42.8z"/>
	</g>
	<g>
		<path class="st1" d="M10.9,42.7c-0.1,0-0.3,0-0.4-0.1c-0.3-0.2-0.6-0.5-0.8-0.7c-0.1-0.1-0.2-0.3-0.2-0.4c0-0.2,0.1-0.3,0.2-0.4
			c0.1-0.1,0.3-0.2,0.4-0.2c0.2,0,0.3,0.1,0.4,0.2c0.2,0.2,0.5,0.4,0.7,0.7c0.3,0.2,0.3,0.6,0.1,0.9C11.3,42.6,11.1,42.7,10.9,42.7z
			"/>
		<path class="st1" d="M10.2,40.9c0.1,0,0.3,0.1,0.4,0.2c0.2,0.2,0.5,0.5,0.7,0.7c0.2,0.2,0.3,0.6,0.1,0.8c-0.1,0.1-0.3,0.2-0.4,0.2
			c-0.1,0-0.3,0-0.4-0.1c-0.3-0.2-0.6-0.5-0.8-0.7c-0.2-0.2-0.2-0.6,0-0.8C9.9,40.9,10,40.9,10.2,40.9 M10.2,40.8
			c-0.2,0-0.4,0.1-0.5,0.2c-0.1,0.1-0.2,0.3-0.2,0.5c0,0.2,0.1,0.3,0.2,0.5c0.3,0.3,0.5,0.5,0.8,0.7c0.1,0.1,0.3,0.1,0.4,0.1
			c0.2,0,0.4-0.1,0.5-0.2c0.2-0.3,0.2-0.7-0.1-0.9c-0.3-0.2-0.5-0.4-0.7-0.7C10.5,40.8,10.3,40.8,10.2,40.8L10.2,40.8z"/>
	</g>
</g>
</svg>
