<?xml version="1.0" encoding="utf-8"?>
<!-- Generator: Adobe Illustrator 23.0.1, SVG Export Plug-In . SVG Version: 6.00 Build 0)  -->
<svg version="1.1" id="Calque_1" xmlns="http://www.w3.org/2000/svg" xmlns:xlink="http://www.w3.org/1999/xlink" x="0px" y="0px"
	 viewBox="0 0 45 51" style="enable-background:new 0 0 45 51;" xml:space="preserve">
<style type="text/css">
	.st0{fill-rule:evenodd;clip-rule:evenodd;fill:#5639BB;fill-opacity:0.15;}
	.st1{fill:#5639BB;}
</style>
<g>
	<circle class="st0" cx="27" cy="18" r="18"/>
</g>
<g>
	<g>
		<path class="st1" d="M33,29.8c-0.1-0.1-0.2-0.2-0.3-0.3L24,24.8c0.9-2.1,1.5-4.1,1.5-5.6c0-3.5-2.9-6.4-6.4-6.4s-6.4,2.9-6.4,6.4
			c0,1.5,0.6,3.5,1.4,5.5l-8.8,4.6c-0.2,0.1-0.3,0.3-0.3,0.5v11.8c0,0.2,0.1,0.4,0.3,0.5l13.4,8.4c0.2,0.1,0.4,0.1,0.6,0l13.5-7.2
			c0.2-0.1,0.3-0.3,0.3-0.5V30.1C33.1,30,33.1,29.9,33,29.8z M31.3,30.1L27.9,32l-5.8-3.2c0.5-0.9,1-2,1.4-3L31.3,30.1z M24.9,33.9
			l-4.3-2.4c0.3-0.5,0.6-1.1,1-1.8l5.7,3.2v3.8l-2.1,1.1v-3.5C25.2,34.2,25.1,34,24.9,33.9z M19.1,14c2.9,0,5.2,2.4,5.2,5.2
			c0,3.2-3.6,9.9-5.2,12.7c-1.7-2.9-5.2-9.3-5.2-12.7C13.9,16.3,16.2,14,19.1,14z M14.3,25.9l0.3,0.2c0.5,1.1,1,2.2,1.5,3.2l-4-2.2
			L14.3,25.9z M11,27.7l6.3,3.4c0.7,1.3,1.3,2.2,1.3,2.3c0.1,0.2,0.3,0.3,0.5,0.3l0,0c0.2,0,0.4-0.1,0.5-0.3
			c0.1-0.1,0.2-0.3,0.5-0.7l3.4,1.8L19,36.8L6.8,29.9L11,27.7z M6.2,41.3V30.9l12.2,6.9v11.3L6.2,41.3z M19.6,49.1V37.8l4.4-2.4v3.5
			c0,0.2,0.1,0.4,0.3,0.5s0.4,0.1,0.6,0l3.3-1.8c0.2-0.1,0.3-0.3,0.3-0.5V33l3.5-1.9v11.5L19.6,49.1z"/>
	</g>
	<g>
		<path class="st1" d="M16.6,40.2l-7.9-4.6c-0.3-0.2-0.6-0.1-0.8,0.2c-0.2,0.3-0.1,0.6,0.2,0.8l7.9,4.6c0.3,0.2,0.6,0.1,0.8-0.2
			C17,40.7,16.8,40.4,16.6,40.2z"/>
	</g>
	<g>
		<path class="st1" d="M16.5,43.1l-7.9-4.6c-0.3-0.2-0.6-0.1-0.8,0.2c-0.2,0.3-0.1,0.6,0.2,0.8l7.9,4.6c0.3,0.2,0.6,0.1,0.8-0.2
			C16.9,43.6,16.8,43.3,16.5,43.1z"/>
	</g>
	<g>
		<path class="st1" d="M19.1,22.6c2,0,3.5-1.6,3.5-3.5c0-2-1.6-3.5-3.5-3.5c-2,0-3.5,1.6-3.5,3.5C15.6,21,17.1,22.6,19.1,22.6z
			 M19.1,16.7c1.3,0,2.4,1.1,2.4,2.4c0,1.3-1.1,2.4-2.4,2.4c-1.3,0-2.4-1.1-2.4-2.4S17.8,16.7,19.1,16.7z"/>
	</g>
	<g>
		<path class="st1" d="M5.3,25.8c0,0.2,0.1,0.4,0.3,0.5s0.4,0.1,0.6-0.1l5.2-3.8c0.2-0.1,0.2-0.3,0.2-0.5c0-0.2-0.1-0.3-0.2-0.5
			l-5.2-3.8c-0.2-0.1-0.4-0.2-0.6-0.1c-0.2,0.2-0.3,0.3-0.3,0.6v1.2H0.7c-0.3,0-0.6,0.2-0.6,0.6v4c0,0.3,0.2,0.6,0.6,0.6h4.6V25.8z
			 M1.3,23.5v-2.9h4.6c0.3,0,0.6-0.2,0.6-0.6v-0.6l3.6,2.6l-3.6,2.7v-0.6c0-0.3-0.2-0.6-0.6-0.6L1.3,23.5L1.3,23.5z"/>
	</g>
	<g>
		<path class="st1" d="M37.4,19.5h-4.6v-1.2c0-0.2-0.1-0.4-0.3-0.5c-0.2-0.1-0.4-0.1-0.6,0.1l-5.2,3.8c-0.2,0.1-0.2,0.3-0.2,0.5
			c0,0.2,0.1,0.3,0.2,0.5l5.2,3.8c0.2,0.1,0.4,0.2,0.6,0.1c0.2-0.1,0.3-0.3,0.3-0.5v-1.2h4.6c0.3,0,0.6-0.2,0.6-0.6v-4
			C38,19.7,37.8,19.5,37.4,19.5z M36.9,23.5h-4.6c-0.3,0-0.6,0.2-0.6,0.6v0.6L28.1,22l3.6-2.6V20c0,0.3,0.2,0.6,0.6,0.6h4.6V23.5z"
			/>
	</g>
</g>
</svg>
