<?xml version="1.0" encoding="utf-8"?>
<!-- Generator: Adobe Illustrator 23.0.1, SVG Export Plug-In . SVG Version: 6.00 Build 0)  -->
<svg version="1.1" id="Calque_1" xmlns="http://www.w3.org/2000/svg" xmlns:xlink="http://www.w3.org/1999/xlink" x="0px" y="0px"
	 viewBox="0 0 45 51" style="enable-background:new 0 0 45 51;" xml:space="preserve">
<style type="text/css">
	.st0{fill-rule:evenodd;clip-rule:evenodd;fill:#5639BB;fill-opacity:0.15;}
	.st1{fill:#5639BB;}
</style>
<g>
	<circle class="st0" cx="27" cy="18" r="18"/>
</g>
<g>
	<path class="st1" d="M29.3,19.3l-3.2,3.2l-1.3-1.3l-1.5-1.5l3.2-3.2c0.4-0.4,0.6-0.9,0.6-1.4s-0.2-1-0.6-1.4c-0.8-0.8-2-0.8-2.8,0
		l-3.2,3.2l-2-2c-0.4-0.4-1.2-0.4-1.6,0L15.8,16c-0.2,0.2-0.3,0.5-0.3,0.8c0,0.3,0.1,0.6,0.3,0.8l0.1,0.1L11.7,22
		c-1.3,1.3-1.3,3.3,0,4.6l0.6,0.5c0,0.1,0.1,0.1,0.1,0.2l0.8,0.8l-0.5,0.5c-0.7,0.7-0.8,1.5-0.4,2.2l-1.1,1.1
		c-0.4,0.4-0.4,1.2,0,1.6l0.1,0.1c-3,3-4.4,4.2-4.9,4.9l0,0c-2.2,2.2-2.1,4.1-1.6,5.2c0.4,1,1.1,1.6,2.1,2c1.4,0.5,2.7,0.2,4.3-1.2
		c0.4-0.4,0.9-0.8,1.5-1.4l0.3-0.3c2.8-2.7,5.2-4.7,7.3-2.9c0.8,0.6,1.2,1.4,1.4,2.3c0.5,3.4-4.3,7.4-4.4,7.5
		c-0.3,0.2-0.3,0.6-0.1,0.9c0.1,0.1,0.3,0.2,0.5,0.2c0.1,0,0.3,0,0.4-0.1c0.2-0.2,5.4-4.5,4.8-8.6c-0.2-1.2-0.8-2.2-1.8-3.1
		c-3.2-2.6-6.5,0.6-9,3l-0.3,0.3c-0.5,0.5-1,1-1.4,1.3c-1.7,1.4-2.5,1.2-3.1,1c-0.6-0.3-1.1-0.7-1.4-1.3c-0.5-1.2-0.1-2.4,1.3-3.8
		c0,0,0,0,0,0c0.2-0.2,3.6-3.6,4.8-4.8l0.1,0.1c0.4,0.4,1.2,0.4,1.6,0l1.1-1.1c0.7,0.4,1.6,0.2,2.2-0.4l0.4-0.6l0.5,0.5c0,0,0,0,0,0
		l1,1c0.6,0.6,1.4,1,2.3,1c0.9,0,1.7-0.3,2.3-1l4.2-4.2l0.1,0.1c0.4,0.4,1.2,0.4,1.6,0l1.1-1.1c0.2-0.2,0.3-0.5,0.3-0.8
		c0-0.3-0.1-0.6-0.3-0.8l-1.8-1.8l-0.2-0.2l3.2-3.2c0.4-0.4,0.6-0.9,0.6-1.4c0-0.5-0.2-1-0.6-1.4C31.3,18.5,30.1,18.5,29.3,19.3z
		 M24.6,14.6c0.2-0.2,0.8-0.2,1,0c0.1,0.1,0.2,0.3,0.2,0.5s-0.1,0.4-0.2,0.5l-3.2,3.2l-1-1L24.6,14.6z M13.2,33.7l-0.5-0.5
		c0,0,0,0,0-0.1c0,0-0.1-0.1-0.1-0.1l-0.4-0.3l1-1l1,1L13.2,33.7z M16.4,32.2c-0.2,0.2-0.8,0.2-1,0l-1.9-1.9c-0.3-0.3-0.3-0.7,0-1
		l0.5-0.5l2.8,2.8L16.4,32.2z M22.9,33.2c-0.8,0.8-2.1,0.8-2.8,0l-1.5-1.5c0,0,0,0,0,0l-4.5-4.5l0,0l-1.5-1.5c-0.8-0.8-0.8-2,0-2.8
		l4.2-4.2l10.3,10.3L22.9,33.2z M29,29.1l-0.2-0.2l0,0L17.1,17.1C17,17.1,16.9,17,16.8,17l-0.1-0.1l1-1.1l1.7,1.7l0,0l9.6,9.6
		c0.1,0.1,0.2,0.1,0.3,0.1l0.7,0.7L29,29.1z M31.2,21.1L28,24.3l-1-1l3.2-3.2c0.2-0.2,0.8-0.2,1,0c0.1,0.1,0.2,0.3,0.2,0.5
		C31.4,20.9,31.3,21,31.2,21.1z"/>
	<path class="st1" d="M18.6,23.2c-0.2-0.2-0.6-0.2-0.9,0c-0.2,0.2-0.2,0.6,0,0.9l3.7,3.7c0.1,0.1,0.3,0.2,0.4,0.2s0.3-0.1,0.4-0.2
		c0.2-0.2,0.2-0.6,0-0.9L18.6,23.2z"/>
	<path class="st1" d="M16.9,24.8c-0.2-0.2-0.6-0.2-0.9,0c-0.2,0.2-0.2,0.6,0,0.9l3.7,3.7c0.1,0.1,0.3,0.2,0.4,0.2
		c0.2,0,0.3-0.1,0.4-0.2c0.2-0.2,0.2-0.6,0-0.9L16.9,24.8z"/>
</g>
</svg>
