<svg xmlns="http://www.w3.org/2000/svg" width="94" height="72" viewBox="0 0 94 72">
  <path fill="#EAE8EE" fill-rule="evenodd" d="M0.549038106,41.1596304 C0.549038106,27.7388316 4.37146365,17.6192682 12.0164294,10.8006365 C19.6613952,3.98200485 30.4765044,0.572740159 44.4620816,0.572740159 L44.4620816,13.8852402 C40.0417696,13.8852402 36.2555756,14.372278 33.1033859,15.3463682 C29.9511963,16.3204584 27.3606425,17.6372644 25.3316468,19.2968255 C23.6649718,20.4513028 22.2338267,22.0567238 21.0381685,24.1131365 C19.8425104,26.1695492 19.0997642,28.4604308 18.8099077,30.9858499 C20.7664392,29.9756823 22.8678675,29.470606 25.1142555,29.470606 C31.0563142,29.470606 35.9475696,31.490911 39.7881685,35.5315816 C43.6287675,39.5722522 45.5490381,44.4787072 45.5490381,50.2510938 C45.5490381,56.1677901 43.5563044,61.2005141 39.5707772,65.349417 C35.5852501,69.4983198 30.2229848,71.5727402 23.4838207,71.5727402 C16.8171207,71.5727402 11.3280452,69.1014742 7.01642941,64.1588682 C2.70481365,59.2162622 0.549038106,51.5499263 0.549038106,41.1596304 Z M48.9221051,41.3750207 C48.9221051,28.0985316 52.6720676,18.015045 60.1721051,11.1242585 C67.6721426,4.23347203 78.5597148,0.788130468 92.8351485,0.788130468 L92.8351485,14.1006305 C88.4148366,14.1006305 84.6286426,14.5876683 81.4764529,15.5617585 C78.3242632,16.5358488 75.7337094,17.8526547 73.7047138,19.5122158 C72.0380388,20.8110028 70.6068937,22.4885775 69.4112355,24.5449902 C68.2155773,26.6014029 67.4728312,28.8201308 67.1829746,31.2012402 C67.4728312,30.9126209 68.1431143,30.587929 69.1938442,30.2271549 C70.2445741,29.8663807 71.8206453,29.6859963 73.9221051,29.6859963 C76.7482062,29.6859963 79.3749915,30.2271494 81.8025398,31.3094719 C84.2300882,32.3917944 86.3315165,33.8709463 88.1068877,35.7469719 C89.8822589,37.6229976 91.2952882,39.8417254 92.3460181,42.4032219 C93.396748,44.9647185 93.9221051,47.6524457 93.9221051,50.4664841 C93.9221051,56.2388707 91.9112556,61.2355179 87.8894964,65.4565756 C83.8677371,69.6776333 78.5235877,71.7881305 71.8568877,71.7881305 C65.1901877,71.7881305 59.7011121,69.3168645 55.3894964,64.3742585 C51.0778806,59.4316525 48.9221051,51.7653166 48.9221051,41.3750207 Z"/>
</svg>
