<svg xmlns="http://www.w3.org/2000/svg" width="149" height="24" viewBox="0 0 149 24">
  <g fill="none" fill-rule="evenodd">
    <path fill="#4D4F56" d="M42.2043916 17.7453176C46.395654 17.7453176 49.0915342 14.9407059 49.0915342 10.4490353 49.0915342 5.95736471 46.395654 3.15275294 42.2043916 3.15275294 38.0131293 3.15275294 35.317249 5.95736471 35.317249 10.4490353 35.317249 14.9209412 38.0131293 17.7453176 42.2043916 17.7453176zM42.2043916 15.1564235C40.020097 15.1564235 38.7215875 13.3713882 38.7215875 10.4490353 38.7215875 7.50691765 40.020097 5.74164706 42.2043916 5.74164706 44.3886863 5.74164706 45.6676502 7.50691765 45.6676502 10.4490353 45.6676502 13.3911529 44.3886863 15.1564235 42.2043916 15.1564235zM52.9680837 10.1353412L52.9680837 7.60517647 49.9965817 7.60517647 49.9965817 17.4118588 53.164673 17.4118588 53.164673 13.4106353C53.164673 12.4105412 53.3221711 11.5279059 53.9518802 10.9394824 54.3847167 10.5667765 55.0144259 10.3510588 55.8605532 10.3510588 56.0968004 10.3510588 56.2540152 10.3510588 56.4508878 10.3705412L56.4508878 7.36969412 56.2540152 7.36969412C54.5617605 7.36969412 53.4796692 8.37007059 52.9680837 10.1353412M60.1894848 17.6473412C61.6259468 17.6473412 62.806616 16.9019294 63.2986559 15.7250824L63.2986559 17.4118588 66.2897034 17.4118588 66.2897034 3.192 63.1411578 3.192 63.1411578 8.91924706C62.6494011 7.89910588 61.6653213 7.36969412 60.3668118 7.36969412 57.9068954 7.36969412 56.2540152 9.42917647 56.2540152 12.5477647 56.2540152 15.6073412 57.8284297 17.6473412 60.1894848 17.6473412zM61.4293574 15.4701176C60.2288593 15.4701176 59.5008555 14.3325176 59.5008555 12.4887529 59.5008555 10.6060235 60.1894848 9.54691765 61.3899829 9.54691765 62.5114487 9.54691765 63.1805323 10.4685176 63.1805323 12.1358118L63.1805323 12.9792C63.1805323 14.5089882 62.5114487 15.4701176 61.4293574 15.4701176zM77.1318612 12.2730353C77.1318612 9.15444706 75.4002319 7.36969412 72.3108897 7.36969412 69.2410932 7.36969412 67.3128745 9.38992941 67.3128745 12.6064941 67.3128745 15.7840941 69.2804677 17.6473412 72.527308 17.6473412 74.5739335 17.6473412 76.2463593 16.6862118 77.0335665 15.0779294L74.7116027 14.0188235C74.2589373 14.9209412 73.5309335 15.3916235 72.5666825 15.3916235 71.2483441 15.3916235 70.3234677 14.5482353 70.3039221 13.2146824L77.1318612 13.2146824 77.1318612 12.2730353zM74.0818935 11.4494118L70.3039221 11.4494118C70.3432966 10.0568471 71.0319259 9.23294118 72.2519696 9.23294118 73.4326388 9.23294118 74.0818935 9.97835294 74.0818935 11.3709176L74.0818935 11.4494118zM81.1067053 10.1353412L81.1067053 7.60517647 78.1354867 7.60517647 78.1354867 17.4118588 81.3035779 17.4118588 81.3035779 13.4106353C81.3035779 12.4105412 81.4607928 11.5279059 82.0905019 10.9394824 82.5236217 10.5667765 83.1533308 10.3510588 83.9994582 10.3510588 84.2354221 10.3510588 84.3929202 10.3510588 84.5895095 10.3705412L84.5895095 7.36969412 84.3929202 7.36969412C82.7006654 7.36969412 81.6182909 8.37007059 81.1067053 10.1353412M85.3965456 17.4118588L88.2300951 17.4118588 88.2300951 7.91887059C88.2300951 7.36969412 88.1907205 6.84 88.151346 6.36931765L88.2102662 6.36931765C88.2496407 6.74202353 88.3677643 7.33044706 88.5054335 7.70315294L91.4372776 17.4118588 94.2317357 17.4118588 97.0454563 7.70315294C97.1635798 7.33044706 97.301249 6.74202353 97.3406236 6.34983529L97.3995437 6.34983529C97.3406236 6.87924706 97.3210779 7.38917647 97.3210779 7.91887059L97.3210779 17.4118588 100.351217 17.4118588 100.351217 3.48621176 95.7268346 3.48621176 93.2674848 11.9788235C93.0706122 12.6655059 92.9723175 13.2146824 92.9131141 13.7048471L92.8737395 13.7048471C92.8148194 13.2146824 92.7360703 12.6849882 92.539481 12.0180706L89.9617243 3.48621176 85.3965456 3.48621176 85.3965456 17.4118588M111.213203 12.2730353C111.213203 9.15444706 109.481574 7.36969412 106.392232 7.36969412 103.322719 7.36969412 101.394217 9.38992941 101.394217 12.6064941 101.394217 15.7840941 103.362093 17.6473412 106.60865 17.6473412 108.655276 17.6473412 110.327702 16.6862118 111.114909 15.0779294L108.792945 14.0188235C108.340279 14.9209412 107.612276 15.3916235 106.648025 15.3916235 105.329686 15.3916235 104.40481 14.5482353 104.385264 13.2146824L111.213203 13.2146824 111.213203 12.2730353zM108.163236 11.4494118L104.385264 11.4494118C104.424639 10.0568471 105.113268 9.23294118 106.333312 9.23294118 107.513981 9.23294118 108.163236 9.97835294 108.163236 11.3709176L108.163236 11.4494118z"/>
    <path fill="#4D4F56" d="M110.819741 9.70362353L112.531542 9.70362353 112.531542 14.2737882C112.531542 16.4114824 113.613916 17.6080941 116.231048 17.6080941 116.801553 17.6080941 117.293593 17.5490824 118.021597 17.4118588L118.021597 14.9209412C117.72643 14.9799529 117.490466 15.0189176 117.116549 15.0189176 116.172127 15.0189176 115.680087 14.5089882 115.680087 13.5283765L115.680087 9.70362353 118.021597 9.70362353 118.021597 7.60517647 115.680087 7.60517647 115.680087 4.03538824 112.531542 5.25148235 112.531542 7.60517647 110.819741 7.60517647 110.819741 9.70362353M121.819397 10.1353412L121.819397 7.60517647 118.848179 7.60517647 118.848179 17.4118588 122.01627 17.4118588 122.01627 13.4106353C122.01627 12.4105412 122.173485 11.5279059 122.803194 10.9394824 123.236314 10.5667765 123.86574 10.3510588 124.71215 10.3510588 124.948114 10.3510588 125.105612 10.3510588 125.302202 10.3705412L125.302202 7.36969412 125.105612 7.36969412C123.413357 7.36969412 122.330983 8.37007059 121.819397 10.1353412M125.931911 6.19284706L129.218125 6.19284706 129.218125 3.32922353 125.931911 3.32922353 125.931911 6.19284706zM125.971285 17.4118588L129.139376 17.4118588 129.139376 7.60517647 125.971285 7.60517647 125.971285 17.4118588zM135.219766 17.6473412C137.738603 17.6473412 139.568527 16.2940235 139.922614 14.1365647L136.970941 13.4891294C136.793897 14.6659765 136.184017 15.3131294 135.200221 15.3131294 133.960348 15.3131294 133.252173 14.2540235 133.252173 12.4105412 133.252173 10.704 133.980177 9.68414118 135.180392 9.68414118 136.144643 9.68414118 136.774352 10.2920471 136.951395 11.4494118L139.922614 10.8412235C139.548698 8.62503529 137.836897 7.36969412 135.259141 7.36969412 132.032129 7.36969412 130.044707 9.31143529 130.044707 12.5085176 130.044707 15.6271059 132.110878 17.6473412 135.219766 17.6473412"/>
    <path fill="#4D4F56" d="M144.546996,17.6473412 C147.301797,17.6473412 148.895757,16.4114824 148.895757,14.4110118 C148.895757,12.7242353 148.069175,11.6846118 145.963629,11.3904 L144.212454,11.1159529 C143.346498,10.9982118 143.051331,10.7432471 143.051331,10.2725647 C143.051331,9.72338824 143.484451,9.46842353 144.428873,9.46842353 C145.648916,9.46842353 146.632713,9.95858824 147.360717,10.7824941 L148.994051,9.31143529 C148.187298,8.09534118 146.514589,7.36969412 144.527167,7.36969412 C141.811741,7.36969412 140.198236,8.56602353 140.198236,10.4685176 C140.198236,12.1358118 141.201861,13.1754353 143.326952,13.4891294 L144.743586,13.6853647 C145.82596,13.8423529 146.140673,14.0580706 146.140673,14.6464941 C146.140673,15.1956706 145.629087,15.5093647 144.605916,15.5093647 C143.248203,15.5093647 142.185658,14.9799529 141.497029,13.9205647 L139.666821,15.2936471 C140.611527,16.8432 142.382247,17.6473412 144.546996,17.6473412"/>
    <polyline fill="#737A81" points="23.954 10.88 18.394 16.314 7.273 16.314 7.273 5.446 12.833 .012 12.833 10.88 23.954 10.88"/>
    <polyline fill="#4D4F56" points="7.273 5.446 12.833 .012 23.954 .012 23.954 10.88 18.394 16.314 18.394 5.446 7.273 5.446"/>
    <polyline fill="#E85A53" points="6.442 17.635 1.615 19.208 .006 23.925 4.833 22.353 6.442 17.635"/>
    <polyline fill="#737A81" points="11.907 17.22 17.467 17.22 11.907 22.654 11.907 17.22"/>
    <polyline fill="#737A81" points="6.347 11.786 .787 11.786 6.347 6.352 6.347 11.786"/>
  </g>
</svg>
