<?xml version="1.0" encoding="utf-8"?>
<!-- Generator: Adobe Illustrator 23.0.1, SVG Export Plug-In . SVG Version: 6.00 Build 0)  -->
<svg version="1.1" id="Calque_1" xmlns="http://www.w3.org/2000/svg" xmlns:xlink="http://www.w3.org/1999/xlink" x="0px" y="0px"
	 viewBox="0 0 44 46.1" style="enable-background:new 0 0 44 46.1;" xml:space="preserve">
<style type="text/css">
	.st0{fill-rule:evenodd;clip-rule:evenodd;fill:#5639BB;fill-opacity:0.15;}
	.st1{fill:#5639BB;stroke:#5639BB;stroke-width:0.5;stroke-miterlimit:10;}
	.st2{fill:none;stroke:#5639BB;stroke-width:1.5;stroke-miterlimit:10;}
	.st3{fill:none;stroke:#5639BB;stroke-width:1.75;stroke-linecap:round;stroke-linejoin:round;stroke-miterlimit:10;}
</style>
<g>
	<circle class="st0" cx="26" cy="18" r="18"/>
</g>
<g>
	<path class="st1" d="M23.7,18.4h0.8c0.3,0,0.5-0.2,0.5-0.5s-0.2-0.5-0.5-0.5h-0.8c-0.3,0-0.5,0.2-0.5,0.5S23.4,18.4,23.7,18.4z"/>
	<path class="st1" d="M21.6,43.4c0.3,0,0.5-0.2,0.5-0.5s-0.2-0.5-0.5-0.5H20c-0.3,0-0.5,0.2-0.5,0.5s0.2,0.5,0.5,0.5H21.6z"/>
	<path class="st1" d="M17.9,43.4c0.3,0,0.5-0.2,0.5-0.5s-0.2-0.5-0.5-0.5h-1.6c-0.3,0-0.5,0.2-0.5,0.5s0.2,0.5,0.5,0.5H17.9z"/>
	<path class="st1" d="M25.2,43.4c0.3,0,0.5-0.2,0.5-0.5s-0.2-0.5-0.5-0.5h-1.6c-0.3,0-0.5,0.2-0.5,0.5s0.2,0.5,0.5,0.5H25.2z"/>
	<path class="st1" d="M30.5,42.9c0,0.3,0.2,0.5,0.5,0.5h1.6c0.3,0,0.5-0.2,0.5-0.5s-0.2-0.5-0.5-0.5H31
		C30.7,42.4,30.5,42.6,30.5,42.9z"/>
	<path class="st1" d="M34.7,36.3c-0.4-0.2-0.9-0.3-1.3-0.3H33c-0.3,0-0.5,0.2-0.5,0.5S32.7,37,33,37h0.4c0.3,0,0.6,0.1,0.9,0.2
		c0.1,0,0.1,0,0.2,0c0.2,0,0.4-0.1,0.5-0.3C35.1,36.7,35,36.4,34.7,36.3z"/>
	<path class="st1" d="M26.8,42.9c0,0.3,0.2,0.5,0.5,0.5h1.6c0.3,0,0.5-0.2,0.5-0.5s-0.2-0.5-0.5-0.5h-1.6
		C27,42.4,26.8,42.6,26.8,42.9z"/>
	<path class="st1" d="M30.8,36h-1.6c-0.3,0-0.5,0.2-0.5,0.5s0.2,0.5,0.5,0.5h1.6c0.3,0,0.5-0.2,0.5-0.5C31.4,36.2,31.1,36,30.8,36z"
		/>
	<path class="st1" d="M34.4,42.1c-0.3,0.1-0.4,0.4-0.3,0.7c0.1,0.2,0.3,0.3,0.5,0.3c0.1,0,0.2,0,0.2-0.1c0.6-0.3,1-0.7,1.4-1.2
		c0.2-0.2,0.1-0.6-0.1-0.7c-0.2-0.2-0.6-0.1-0.7,0.1C35.2,41.7,34.8,42,34.4,42.1z"/>
	<path class="st1" d="M3.1,21.9c-0.1-0.3-0.4-0.4-0.7-0.3C2.2,21.7,2,22,2.1,22.3c0.2,0.6,0.6,1.1,1,1.5c0.1,0.1,0.2,0.1,0.3,0.1
		s0.3-0.1,0.4-0.2C4,23.5,4,23.1,3.7,23C3.5,22.7,3.3,22.3,3.1,21.9z"/>
	<path class="st1" d="M3,18.3c-0.4,0.4-0.8,1-1,1.6c-0.1,0.3,0.1,0.6,0.4,0.7c0.1,0,0.1,0,0.2,0c0.2,0,0.4-0.1,0.5-0.4
		c0.1-0.4,0.4-0.8,0.7-1.1c0.2-0.2,0.2-0.5,0-0.7C3.6,18.1,3.3,18.1,3,18.3z"/>
	<path class="st1" d="M6.9,17.3H5.5c-0.1,0-0.2,0-0.3,0c-0.3,0-0.5,0.3-0.5,0.6c0,0.3,0.3,0.5,0.5,0.5l0,0c0.1,0,0.1,0,0.2,0h1.4
		c0.3,0,0.5-0.2,0.5-0.5S7.2,17.3,6.9,17.3z"/>
	<path class="st1" d="M36.4,39.6h0.5c0-0.6-0.2-1.2-0.4-1.7c-0.1-0.3-0.5-0.3-0.7-0.2c-0.3,0.1-0.3,0.5-0.2,0.7
		c0.2,0.4,0.3,0.8,0.3,1.3L36.4,39.6L36.4,39.6z"/>
	<path class="st1" d="M23.3,25.3c0.3,0.3,0.6,0.7,0.7,1.1c0.1,0.2,0.3,0.4,0.5,0.4c0.1,0,0.1,0,0.2,0c0.3-0.1,0.4-0.4,0.3-0.7
		c-0.2-0.6-0.5-1.1-1-1.5c-0.2-0.2-0.5-0.2-0.7,0C23.1,24.8,23.1,25.1,23.3,25.3z"/>
	<path class="st1" d="M24.7,27.8c-0.3-0.1-0.6,0.1-0.7,0.3c-0.1,0.4-0.4,0.8-0.7,1.1c-0.2,0.2-0.2,0.5,0,0.7
		c0.1,0.1,0.2,0.2,0.4,0.2c0.1,0,0.3,0,0.4-0.1c0.5-0.4,0.8-1,1-1.5C25.1,28.2,25,27.9,24.7,27.8z"/>
	<path class="st1" d="M14.4,23.6h-1.6c-0.3,0-0.5,0.2-0.5,0.5s0.2,0.5,0.5,0.5h1.6c0.3,0,0.5-0.2,0.5-0.5S14.7,23.6,14.4,23.6z"/>
	<path class="st1" d="M14.5,29.9h-0.7c-0.4,0-0.7,0.1-1.1,0.2c-0.3,0.1-0.4,0.4-0.3,0.7c0.1,0.2,0.3,0.4,0.5,0.4c0.1,0,0.1,0,0.2,0
		c0.2-0.1,0.5-0.1,0.7-0.1h0.7c0.3,0,0.5-0.2,0.5-0.5C15,30.1,14.7,29.9,14.5,29.9z"/>
	<path class="st1" d="M17.9,17.3h-1.6c-0.3,0-0.5,0.2-0.5,0.5s0.2,0.5,0.5,0.5h1.6c0.3,0,0.5-0.2,0.5-0.5S18.2,17.3,17.9,17.3z"/>
	<path class="st1" d="M14,36.5c0,0.3,0.2,0.5,0.5,0.5h1.6c0.3,0,0.5-0.2,0.5-0.5S16.4,36,16.1,36h-1.6C14.3,36,14,36.2,14,36.5z"/>
	<path class="st1" d="M11.7,34.9c-0.2-0.2-0.5-0.3-0.7-0.1s-0.3,0.5-0.1,0.7c0.4,0.5,0.8,0.9,1.4,1.2c0.1,0,0.1,0,0.2,0
		c0.2,0,0.4-0.1,0.5-0.3c0.1-0.3,0-0.6-0.3-0.7C12.3,35.6,12,35.3,11.7,34.9z"/>
	<path class="st1" d="M10.5,17.3H9c-0.3,0-0.5,0.2-0.5,0.5s0.2,0.5,0.5,0.5h1.6c0.3,0,0.5-0.2,0.5-0.5S10.8,17.3,10.5,17.3z"/>
	<path class="st1" d="M18.1,23.6h-1.6c-0.3,0-0.5,0.2-0.5,0.5s0.2,0.5,0.5,0.5h1.6c0.3,0,0.5-0.2,0.5-0.5S18.3,23.6,18.1,23.6z"/>
	<path class="st1" d="M10.7,23.6H9.1c-0.3,0-0.5,0.2-0.5,0.5s0.2,0.5,0.5,0.5h1.6c0.3,0,0.5-0.2,0.5-0.5S11,23.6,10.7,23.6z"/>
	<path class="st1" d="M10.8,31.5c-0.3,0.5-0.5,1.1-0.6,1.7c0,0.3,0.2,0.5,0.5,0.6l0,0c0.3,0,0.5-0.2,0.5-0.5c0-0.4,0.2-0.9,0.4-1.2
		c0.2-0.2,0.1-0.6-0.1-0.7C11.3,31.2,11,31.2,10.8,31.5z"/>
	<path class="st1" d="M21.4,36.5c0,0.3,0.2,0.5,0.5,0.5h1.6c0.3,0,0.5-0.2,0.5-0.5S23.8,36,23.5,36h-1.6
		C21.6,36,21.4,36.2,21.4,36.5z"/>
	<path class="st1" d="M21.6,17.3H20c-0.3,0-0.5,0.2-0.5,0.5s0.2,0.5,0.5,0.5h1.6c0.3,0,0.5-0.2,0.5-0.5S21.9,17.3,21.6,17.3z"/>
	<path class="st1" d="M21.8,29.9c-0.1,0-0.1,0-0.2,0h-1.4c-0.3,0-0.5,0.2-0.5,0.5s0.2,0.5,0.5,0.5h1.4c0.1,0,0.2,0,0.2,0
		c0.3,0,0.5-0.3,0.5-0.6C22.3,30.1,22.1,29.9,21.8,29.9z"/>
	<path class="st1" d="M21.8,23.6h-0.1h-1.5c-0.3,0-0.5,0.2-0.5,0.5s0.2,0.5,0.5,0.5h1.6l0,0c0.3,0,0.5-0.2,0.5-0.5
		C22.3,23.9,22,23.6,21.8,23.6z"/>
	<path class="st1" d="M17.7,36.5c0,0.3,0.2,0.5,0.5,0.5h1.6c0.3,0,0.5-0.2,0.5-0.5S20.1,36,19.8,36h-1.6
		C17.9,36,17.7,36.2,17.7,36.5z"/>
	<path class="st1" d="M18.1,29.9h-1.6c-0.3,0-0.5,0.2-0.5,0.5s0.2,0.5,0.5,0.5h1.6c0.3,0,0.5-0.2,0.5-0.5
		C18.7,30.1,18.4,29.9,18.1,29.9z"/>
	<path class="st1" d="M14.1,43.4c0.3,0,0.5-0.2,0.5-0.5s-0.2-0.5-0.5-0.5h-0.8c-0.3,0-0.5,0.2-0.5,0.5s0.2,0.5,0.5,0.5H14.1z"/>
</g>
<circle class="st2" cx="26.4" cy="36.5" r="2.5"/>
<circle class="st2" cx="8.6" cy="42.7" r="2.5"/>
<circle class="st2" cx="6.3" cy="24.1" r="2.5"/>
<circle class="st2" cx="13.4" cy="17.9" r="2.5"/>
<line class="st3" x1="25.9" y1="15.7" x2="30" y2="19.7"/>
<line class="st3" x1="30" y1="15.7" x2="25.9" y2="19.7"/>
</svg>
